<svg xmlns="http://www.w3.org/2000/svg" xmlns:xlink="http://www.w3.org/1999/xlink" width="1080" zoomAndPan="magnify" viewBox="0 0 810 809.999993" height="1080" preserveAspectRatio="xMidYMid meet" version="1.0"><path fill="#edeced" d="M 38.160156 322.433594 C 38.15625 322.429688 38.148438 322.421875 38.140625 322.417969 C 38.140625 322.417969 38.140625 322.414062 38.136719 322.410156 C 38.140625 322.410156 38.160156 322.433594 38.160156 322.433594 Z M 801.421875 115.574219 C 800.328125 115.160156 799.042969 115.261719 797.84375 115.125 C 798.308594 115.9375 798.863281 116.710938 799.226562 117.5625 C 801.480469 122.886719 803.128906 127.964844 798.050781 132.996094 C 796.132812 134.898438 795.332031 138.074219 794.445312 140.808594 C 793.890625 142.519531 793.765625 144.554688 794.078125 146.332031 C 794.921875 151.09375 794.585938 152.417969 790.019531 152.679688 C 785.753906 152.925781 782.628906 155.167969 779.125 156.863281 C 777.164062 157.816406 779.054688 162.957031 774.457031 161.21875 C 774.355469 161.183594 773.253906 163.449219 773.285156 163.46875 C 778.289062 166.304688 770.300781 170.925781 774.703125 173.753906 C 773.066406 175.445312 773.464844 178.515625 769.949219 179.078125 C 764.578125 179.941406 764.511719 180.382812 765.027344 184.976562 C 765.207031 186.542969 766.011719 188.03125 766.371094 189.589844 C 766.574219 190.460938 766.757812 191.554688 766.410156 192.289062 C 765.269531 194.683594 761.601562 195.785156 764.011719 199.957031 C 764.878906 201.457031 762.238281 205.109375 760.984375 207.675781 C 759.695312 210.3125 757.457031 212.753906 760.210938 215.738281 C 758.5625 218.035156 756.707031 220.132812 755.90625 223.027344 C 755.285156 225.277344 751.8125 226.238281 753.675781 229.917969 C 754.402344 231.347656 750.636719 235.128906 751.382812 236.472656 C 753.960938 241.125 753.332031 244.152344 748.402344 245.699219 C 744.867188 246.808594 745.789062 252.914062 740.503906 251.96875 C 738.378906 251.589844 739.226562 253.160156 740.066406 254.320312 C 743.253906 258.734375 742.859375 260.28125 738.304688 261.886719 C 732.078125 264.085938 728.925781 263.292969 724.613281 258.632812 C 723.128906 257.027344 721.382812 255.667969 719.855469 254.101562 C 718.304688 252.515625 717.269531 251.789062 715.160156 253.886719 C 711.175781 257.847656 710.957031 257.632812 707.09375 253.546875 C 702.328125 248.515625 703.042969 246.304688 710.347656 243.636719 C 710.269531 241.992188 710.769531 239.777344 709.910156 238.90625 C 707.75 236.71875 703.4375 235.265625 709.644531 232.847656 C 709.652344 232.84375 709.453125 231.808594 709.117188 231.527344 C 708.515625 231.015625 707.738281 230.710938 707.03125 230.316406 C 707.621094 230.089844 708.195312 229.726562 708.804688 229.660156 C 710.878906 229.429688 712.945312 229.511719 710.886719 226.398438 C 710.257812 225.449219 710.34375 222.835938 711 222.421875 C 715.65625 219.507812 712.722656 213.34375 716.488281 210.234375 C 718.019531 208.96875 718.015625 208.035156 716.890625 206.285156 C 715.75 204.511719 716.992188 203.355469 719.101562 203.179688 C 721.410156 202.988281 725.902344 204.515625 722.527344 199.269531 C 724.324219 195.863281 725.707031 192.339844 726.410156 188.5 C 726.515625 187.917969 729.007812 187.769531 730.398438 187.421875 C 727.082031 183.972656 731.988281 183.257812 732.507812 181.082031 C 731.304688 180.847656 730.101562 180.574219 728.886719 180.410156 C 728.1875 180.3125 727.007812 180.15625 726.804688 180.488281 C 719.457031 192.480469 717.15625 194.511719 706.371094 199.40625 C 704.773438 200.132812 703.066406 201.828125 702.523438 203.445312 C 701.007812 207.96875 697.664062 210.777344 694.289062 213.667969 C 693.605469 214.253906 692.980469 215.078125 692.179688 215.339844 C 687.601562 216.816406 682.761719 217.691406 678.464844 219.722656 C 676.121094 220.832031 674.351562 223.628906 672.886719 226.011719 C 671.066406 228.976562 670.746094 233.828125 665.289062 230.183594 C 664.890625 229.917969 663.171875 231.285156 662.304688 232.136719 C 659.429688 234.960938 656.761719 238.007812 653.800781 240.734375 C 652.421875 242.007812 650.527344 242.714844 648.902344 243.738281 C 647.007812 244.929688 644.691406 245.824219 643.390625 247.496094 C 641.179688 250.328125 640.261719 254.492188 637.605469 256.566406 C 634.972656 258.617188 631.371094 259.578125 628.316406 261.511719 C 626.363281 262.742188 626.085938 264.542969 624.683594 265.660156 C 622.683594 267.242188 620.511719 268.613281 618.355469 269.984375 C 617.273438 270.667969 615.253906 270.9375 615.042969 271.757812 C 613.371094 278.144531 605.738281 278.933594 603.296875 284.566406 C 602.890625 285.5 601.289062 285.945312 600.203125 286.546875 C 597.074219 288.289062 594.449219 290.101562 592.367188 293.519531 C 590.273438 296.953125 586.105469 299.320312 582.480469 301.558594 C 578.066406 304.289062 574.238281 307.433594 570.761719 311.347656 C 566.617188 316.015625 562.371094 320.59375 556.828125 324.015625 C 551.472656 327.320312 548.476562 333.234375 544.941406 338.421875 C 543.46875 340.574219 541.871094 342.808594 539.847656 344.386719 C 532.875 349.824219 525.339844 354.511719 522.210938 363.664062 C 521.449219 365.886719 518.285156 367.4375 515.984375 368.929688 C 514.402344 369.957031 512.457031 370.542969 510.59375 370.980469 C 507.394531 371.730469 511.683594 375.046875 508.566406 376.171875 C 506.925781 376.761719 505.445312 378.84375 504.683594 380.59375 C 503.558594 383.179688 502.441406 383.324219 500.199219 382.003906 C 499.644531 381.675781 497.660156 382.546875 497.296875 383.324219 C 494.449219 389.335938 490.398438 394.367188 485.738281 399.050781 C 484.363281 400.433594 483.894531 402.714844 483.011719 404.585938 C 478.898438 402.269531 481.21875 406.457031 480.25 407.242188 C 478.457031 408.695312 476.414062 409.832031 474.472656 411.097656 C 476.15625 413.503906 475.738281 415.816406 474.167969 418.074219 C 473.980469 418.34375 473.800781 418.621094 473.578125 418.855469 C 470.441406 422.089844 466.605469 424.902344 464.375 428.671875 C 462.484375 431.871094 461.5 435.457031 458.648438 438.304688 C 455.398438 441.546875 452.828125 445.484375 450.121094 449.234375 C 447.625 452.6875 445.589844 456.496094 442.886719 459.765625 C 440.441406 462.726562 438.621094 466.421875 434.742188 468.007812 C 435.890625 474.503906 429.199219 477.292969 427.796875 482.703125 C 426.722656 486.855469 422.570312 490.753906 419.667969 494.347656 C 415.882812 499.027344 412.664062 504.253906 409.777344 509.558594 C 406.546875 515.5 405.730469 522.859375 398.988281 526.640625 C 396.191406 528.210938 398.351562 529.949219 399.21875 531.566406 C 394.621094 531.726562 396.863281 537.21875 393.753906 538.597656 C 392.949219 538.957031 391.765625 539.640625 391.6875 540.285156 C 390.296875 551.769531 380.308594 559.113281 377.480469 569.929688 C 376.945312 571.984375 375.265625 573.984375 373.621094 575.457031 C 369.527344 579.132812 366.121094 582.8125 367.046875 589.027344 C 367.371094 591.210938 361.058594 588.984375 363.132812 593.835938 C 364.269531 596.488281 362.714844 598.886719 360.597656 600.9375 C 358.492188 602.984375 361.8125 605.441406 359.871094 608.695312 C 357.757812 612.226562 358.089844 617.480469 354.683594 621.011719 C 354.035156 621.683594 353.210938 622.726562 353.308594 623.484375 C 353.996094 628.644531 352.289062 632.527344 348.046875 635.609375 C 346.597656 636.664062 343.558594 640.480469 343 640.824219 C 341.703125 641.628906 339.285156 643.042969 339.40625 643.324219 C 340.257812 645.339844 339.101562 647.84375 340.957031 649.546875 C 341.480469 650.027344 342.34375 651.019531 342.21875 651.203125 C 338.71875 656.335938 338.355469 662.765625 334.351562 667.925781 C 330.039062 673.480469 327.394531 680.347656 326.859375 687.738281 C 326.722656 689.613281 325.847656 691.523438 324.957031 693.234375 C 319.730469 703.292969 314.394531 713.289062 309.105469 723.3125 C 305.59375 729.96875 300.539062 735.582031 295.417969 738.441406 C 291.15625 740.820312 286.820312 743.070312 282.640625 745.585938 C 280.425781 746.914062 279.082031 746.925781 278.210938 744.21875 C 278.097656 743.871094 276.585938 743.503906 276.164062 743.792969 C 273.15625 745.863281 271.832031 743.230469 270.421875 741.648438 C 268.773438 739.800781 265.664062 738.683594 266.554688 735.269531 C 266.757812 734.488281 267.042969 733.726562 267.289062 732.957031 C 262.34375 733.652344 262.769531 728.425781 260.191406 726.535156 C 257.328125 724.433594 256.480469 721.453125 255.910156 718.1875 C 255.792969 717.511719 254.539062 716.46875 253.925781 716.542969 C 250.746094 716.933594 250.117188 714.542969 249.25 712.507812 C 248.199219 710.027344 246.855469 708.054688 244.097656 707.132812 C 243.519531 706.9375 243.023438 704.371094 243.234375 704.253906 C 248.039062 701.621094 244.238281 695.175781 248.835938 692.066406 C 250.414062 691 248.277344 687.304688 246.207031 686.171875 C 244.453125 685.214844 244.300781 684.695312 245.5625 683.566406 C 247.761719 681.601562 247.832031 680.066406 245.21875 678.324219 C 238 673.503906 237.328125 671.359375 239.273438 663.15625 C 239.679688 661.433594 239.515625 659.203125 238.730469 657.65625 C 237.414062 655.0625 235.488281 652.738281 233.621094 650.464844 C 232.132812 648.652344 229.101562 647.21875 228.910156 645.386719 C 227.898438 635.832031 218.867188 629.167969 219.742188 619.003906 C 219.867188 617.554688 218.808594 615.910156 218.039062 614.496094 C 216.695312 612.015625 215.417969 609.417969 213.613281 607.292969 C 211.941406 605.320312 212.988281 602.757812 210.511719 600.554688 C 204.976562 595.625 204.847656 592.851562 205.617188 584.25 C 205.828125 581.878906 205.433594 579.902344 203.664062 577.855469 C 198.742188 572.152344 193.417969 566.511719 193.460938 558.167969 C 193.464844 557.882812 193.136719 557.601562 192.96875 557.3125 C 190.453125 552.957031 188.4375 548.765625 188.566406 543.230469 C 188.640625 540.042969 186.753906 535.984375 183.25 533.257812 C 176.238281 527.792969 173.117188 519.867188 171.324219 511.359375 C 171.066406 510.128906 170.585938 508.773438 169.769531 507.867188 C 164.683594 502.203125 161.652344 495.4375 158.394531 488.65625 C 156.257812 484.207031 154.136719 479.453125 150.550781 475.707031 C 150.097656 475.234375 151.195312 473.019531 150.824219 472.78125 C 149.824219 472.132812 148.191406 472.441406 147.214844 471.777344 C 145.667969 470.722656 144.195312 469.355469 143.15625 467.808594 C 142.109375 466.246094 142.007812 463.984375 140.832031 462.589844 C 137.964844 459.195312 140.871094 459.898438 142.632812 459.734375 C 143.636719 459.636719 144.796875 459.945312 145.605469 459.527344 C 146.257812 459.191406 146.664062 458.074219 146.832031 457.234375 C 146.902344 456.882812 146.105469 456.015625 145.640625 455.960938 C 143.976562 455.777344 142.285156 455.761719 140.609375 455.835938 C 137.441406 455.972656 134.261719 456.289062 134.769531 451.464844 C 134.820312 450.996094 134.097656 450.039062 133.664062 449.996094 C 130.097656 449.636719 127.335938 449.332031 132.808594 446.597656 C 133.789062 446.109375 134.996094 444.285156 134.757812 443.46875 C 133.765625 440.085938 132.644531 444.132812 131.410156 443.609375 C 127.765625 442.066406 124.925781 439.722656 123.617188 435.875 C 123.398438 435.230469 123.621094 434.433594 123.640625 433.707031 C 113.5 433.695312 110.222656 424.527344 105.636719 418.511719 C 100.707031 412.035156 94.898438 407.917969 87.859375 405.535156 C 82.445312 403.703125 80.875 398.378906 76.679688 395.601562 C 76.21875 395.300781 78.496094 391.433594 76.519531 389.144531 C 74.839844 388.503906 73.03125 388.074219 71.53125 387.144531 C 69.675781 385.988281 68.089844 384.394531 66.386719 382.988281 C 65.753906 382.351562 65.121094 381.714844 64.488281 381.082031 C 64.257812 380.570312 64.023438 380.0625 63.792969 379.554688 C 63.34375 380.007812 62.890625 380.460938 62.445312 380.917969 C 62.5 380.972656 62.554688 381.03125 62.613281 381.085938 C 62.5 381.085938 62.390625 381.085938 62.277344 381.085938 L 62.441406 380.914062 C 60.417969 379.304688 58.429688 377.648438 56.363281 376.09375 C 54.558594 374.734375 50.921875 372.644531 51.082031 372.320312 C 53.097656 368.136719 48.734375 368.394531 47.410156 367.355469 C 39.234375 360.921875 31.015625 354.4375 22.175781 349.015625 C 19.394531 347.308594 22.921875 345.597656 20.8125 344.835938 C 19.308594 344.289062 17.972656 343.175781 16.445312 342.8125 C 14.566406 342.367188 12.554688 342.511719 10.632812 342.210938 C 10.316406 342.160156 10.144531 341.164062 9.910156 340.597656 C 10.695312 340.109375 11.566406 339.710938 12.238281 339.097656 C 13.082031 338.324219 14.304688 336.492188 12.113281 336.835938 C 7.949219 337.488281 6.910156 333.261719 3.839844 332.53125 C 3.820312 333.171875 3.890625 333.828125 3.753906 334.441406 C 3.625 335.015625 3.28125 335.539062 3.03125 336.085938 C 2.644531 335.421875 1.820312 334.609375 1.980469 334.128906 C 2.207031 333.457031 3.171875 333.039062 3.820312 332.515625 C 3.894531 329.902344 5.917969 330.664062 7.390625 330.429688 C 9.484375 330.09375 10.367188 328.914062 9.042969 327.089844 C 8.28125 326.039062 7.429688 323.761719 5.421875 325.988281 C 4.757812 326.726562 4.015625 327.542969 3.136719 327.886719 C 2.371094 328.183594 1.363281 327.859375 0.464844 327.8125 C 0.695312 327.296875 0.839844 326.714844 1.171875 326.273438 C 1.972656 325.210938 3.101562 324.332031 3.671875 323.171875 C 6.269531 317.867188 6.527344 317.101562 10.746094 318.875 C 13.753906 320.136719 13.320312 318.367188 14.609375 317.308594 C 15.703125 316.410156 18.261719 316.667969 19.917969 317.203125 C 23.5625 318.375 27.097656 319.941406 30.582031 321.554688 C 32.945312 322.644531 31.460938 317.300781 34.273438 319.527344 C 35.53125 320.527344 36.847656 321.457031 38.140625 322.417969 C 38.675781 324.59375 38.570312 327.425781 39.933594 328.757812 C 41.265625 330.0625 44.441406 330.746094 46.195312 330.078125 C 49.207031 328.933594 50.929688 329.613281 52.753906 331.835938 C 55.527344 335.214844 55.648438 334.960938 63.074219 337.175781 C 65.007812 337.753906 66.421875 340.070312 68.082031 341.578125 C 69.1875 342.582031 70.167969 343.851562 71.460938 344.476562 C 72.574219 345.015625 74.050781 344.789062 75.355469 344.96875 C 75.636719 345.007812 76.109375 345.496094 76.09375 345.523438 C 73.125 350.28125 79.472656 348.464844 80.105469 351.273438 C 81.507812 357.523438 86.617188 361.421875 90.996094 365.726562 C 96.636719 371.269531 101.996094 377.097656 107.609375 382.667969 C 112.183594 387.207031 116.785156 391.738281 123.0625 394.054688 C 125.128906 394.816406 126.777344 396.078125 127.796875 398.492188 C 129.003906 401.355469 129.917969 404.996094 134.027344 405.476562 C 137.0625 412.675781 143.421875 416.886719 148.835938 421.941406 C 151.300781 424.246094 149.878906 428.222656 153.117188 430.539062 C 155.652344 432.351562 157.085938 435.699219 159.023438 438.351562 C 160.960938 441 162.578125 444.003906 164.957031 446.171875 C 167.265625 448.273438 171.339844 449.128906 167.621094 453.296875 C 169.777344 456.667969 171.410156 460.601562 174.246094 463.25 C 176.914062 465.742188 176.371094 469.855469 178.863281 471.496094 C 181.601562 473.292969 183.816406 474.710938 183.664062 478.246094 C 188.613281 480.714844 189.789062 486.292969 193.25 489.785156 C 194.9375 491.488281 194.808594 491.921875 194.851562 494 C 194.921875 497.117188 193.78125 502.078125 199.828125 502.253906 C 202.113281 502.324219 200.773438 503.75 200.324219 504.894531 C 199.164062 507.824219 199.378906 509.746094 203.335938 510.460938 C 204.945312 510.75 207.09375 513.464844 207.261719 515.242188 C 207.605469 518.90625 209.839844 521.167969 211.648438 523.875 C 213.269531 526.296875 214.835938 528.808594 216.019531 531.464844 C 216.945312 533.542969 217.273438 535.890625 217.824219 538.132812 C 218.128906 539.386719 217.910156 541.347656 218.664062 541.820312 C 223.488281 544.867188 223.136719 549.820312 224.074219 554.464844 C 224.703125 557.574219 225.503906 561.65625 227.707031 563.25 C 235.074219 568.582031 237.019531 577.027344 239.589844 584.414062 C 242.503906 592.796875 246.566406 600.386719 250.324219 608.265625 C 254.777344 617.59375 258.394531 627.324219 262.320312 636.902344 C 263.789062 640.484375 264.636719 644.425781 266.664062 647.640625 C 267.855469 649.53125 270.882812 650.199219 272.941406 651.628906 C 274.644531 652.808594 277.175781 653.496094 274.96875 656.824219 C 273.980469 658.316406 274.496094 661.433594 275.332031 663.382812 C 277.628906 668.75 280.378906 673.90625 280.578125 679.933594 C 280.59375 680.503906 281.132812 681.058594 281.429688 681.621094 C 281.722656 681.054688 282.339844 680.425781 282.25 679.925781 C 281.742188 677.101562 283.699219 675.683594 285.359375 674.066406 C 286.664062 672.792969 283.574219 669.453125 287.566406 669.347656 C 287.84375 669.339844 288.386719 668.214844 288.308594 667.683594 C 287.421875 661.625 291.179688 657.035156 293.199219 651.90625 C 294.585938 648.386719 295.214844 644.765625 299.734375 642.945312 C 304.144531 641.171875 298.945312 635.746094 302.054688 632.808594 C 299.191406 629.527344 301.957031 626.75 303.097656 624.039062 C 305.308594 618.78125 304.671875 612.765625 309.769531 608.074219 C 313.433594 604.703125 314.652344 598.523438 316.566406 593.449219 C 317.9375 589.820312 320.214844 586.460938 319.351562 582.015625 C 319.082031 580.621094 321.449219 578.714844 322.75 577.015625 C 322.738281 577.015625 322.726562 577.015625 322.714844 577.015625 C 322.746094 576.988281 322.78125 576.960938 322.816406 576.929688 C 322.839844 576.898438 322.871094 576.863281 322.894531 576.832031 C 322.894531 576.839844 322.894531 576.851562 322.894531 576.863281 C 325.820312 574.238281 329.363281 572.519531 329.273438 567.167969 C 329.230469 564.59375 333.125 561.605469 335.765625 559.453125 C 337.664062 557.90625 340.03125 557.285156 337.871094 554.28125 C 337.75 554.109375 338.695312 553.164062 339.152344 552.582031 C 341.878906 549.101562 341.683594 548.289062 337.785156 546.667969 C 336.996094 546.339844 336.253906 545.890625 335.488281 545.496094 C 336.171875 544.757812 336.734375 543.578125 337.550781 543.363281 C 341.535156 542.3125 345.335938 539.503906 344.285156 537.257812 C 342.203125 532.804688 344.335938 530.75 347.226562 528.324219 C 348.378906 527.355469 349 525.769531 349.90625 524.496094 C 351.339844 522.472656 349.558594 522.707031 348.480469 522.28125 C 347.945312 522.070312 347.242188 521.480469 347.191406 521.003906 C 346.902344 518.277344 351.390625 510.695312 354.164062 510.195312 C 360.109375 509.128906 362.234375 504.253906 365.050781 500.105469 C 367.597656 496.347656 369.78125 492.339844 372.011719 488.378906 C 372.386719 487.714844 372.574219 486.457031 372.199219 485.941406 C 370.933594 484.191406 371.523438 482.988281 372.730469 481.554688 C 373.824219 480.253906 374.75 480.125 375.976562 481.226562 C 376.09375 481.332031 376.519531 481.265625 376.683594 481.132812 C 378.496094 479.65625 373.40625 476.332031 378.445312 475.367188 C 381.382812 474.800781 379.359375 471.785156 379.808594 470.121094 C 380.789062 466.496094 382.84375 462.785156 385.460938 460.074219 C 388.855469 456.554688 390.957031 452.390625 393.257812 448.296875 C 394.855469 445.460938 400.183594 443.539062 396 438.960938 C 397.636719 436.996094 398.890625 434.113281 400.976562 433.25 C 406.164062 431.105469 405.511719 425.230469 409.019531 422.210938 C 407.972656 421.1875 407.433594 420.207031 408.902344 419.027344 C 413.78125 415.113281 418.652344 411.191406 423.445312 407.183594 C 424.394531 406.390625 428.285156 409.277344 426.464844 404.648438 C 426.074219 403.660156 428.597656 401.71875 429.371094 400.027344 C 430.460938 397.636719 428.066406 392.074219 434.472656 394.796875 C 434.5625 394.835938 435.648438 393.339844 435.695312 392.527344 C 435.867188 389.496094 435.238281 386.371094 440.253906 386.78125 C 441.753906 386.902344 444.847656 385.160156 442.320312 381.910156 C 442.042969 381.554688 444.675781 379.039062 445.835938 377.433594 C 449.886719 371.824219 453.496094 365.898438 457.355469 360.167969 C 459.023438 357.6875 461.804688 362.796875 462.367188 358.28125 C 462.636719 356.140625 465.730469 354.347656 467.558594 352.414062 C 469.175781 350.703125 470.917969 349.097656 472.421875 347.296875 C 474.699219 344.574219 478.671875 342.992188 478.421875 338.496094 C 478.394531 337.960938 478.976562 336.933594 479.34375 336.902344 C 484.972656 336.410156 485.730469 330.523438 489.402344 327.753906 C 493.082031 324.984375 495.625 320.699219 498.644531 317.0625 C 501.800781 313.261719 504.847656 309.367188 508.101562 305.648438 C 510.316406 303.121094 512.597656 300.570312 515.234375 298.535156 C 516.910156 297.242188 519.347656 296.972656 521.355469 296.054688 C 523.0625 295.269531 525.628906 294.535156 526.066406 293.203125 C 527.011719 290.335938 526.761719 287.09375 531.296875 287.804688 C 531.625 287.855469 532.410156 286.382812 532.632812 285.527344 C 535.558594 274.21875 545.367188 269.113281 553.441406 262.480469 C 554.328125 261.753906 556.207031 261.339844 557.183594 261.777344 C 562.0625 263.941406 563.128906 257.875 567.132812 257.332031 C 569.476562 257.011719 572.066406 253.117188 571.777344 249.328125 C 571.757812 249.035156 571.566406 248.753906 571.453125 248.46875 C 573.6875 247.648438 575.617188 245.117188 578.371094 247.246094 C 578.808594 245.007812 578.753906 242.492188 579.8125 240.597656 C 581.089844 238.316406 583.3125 236.566406 585.125 234.582031 C 586.671875 232.894531 586.710938 232.96875 593.886719 232.566406 C 594.664062 232.523438 595.582031 232.101562 596.136719 231.550781 C 598.523438 229.183594 601.71875 227.074219 602.867188 224.175781 C 604.25 220.6875 605.40625 222.929688 607 223.125 C 607.667969 223.203125 609.222656 221.125 609.179688 221.074219 C 607.113281 218.722656 607.871094 216.988281 610.214844 215.507812 C 612.933594 213.789062 615.640625 212.109375 617.011719 208.929688 C 617.234375 208.410156 619.019531 207.910156 619.195312 208.125 C 623.964844 214.027344 626.121094 206.496094 629.628906 205.988281 C 631.523438 205.710938 631.136719 203.742188 629.90625 202.203125 C 629.550781 201.757812 630.0625 199.789062 630.421875 199.714844 C 636.457031 198.472656 637.980469 191.804688 643.765625 189.367188 C 649.515625 186.945312 652.535156 179.304688 659.050781 176.484375 C 659.523438 176.277344 659.875 174.53125 659.535156 173.933594 C 658.550781 172.222656 658.035156 171.304688 660.695312 170.820312 C 663.800781 170.253906 667.253906 169.8125 668.238281 165.847656 C 671.066406 166.121094 673.644531 166.164062 674.273438 162.351562 C 674.363281 161.792969 676.753906 160.871094 677.238281 161.238281 C 680.496094 163.710938 681.933594 162.96875 682.316406 159.003906 C 682.382812 158.296875 683.800781 157.023438 683.957031 157.113281 C 691.570312 161.550781 691.503906 153.078125 693.867188 150.417969 C 697.796875 145.992188 702.222656 141.191406 707.996094 140.609375 C 713.199219 140.082031 716.996094 137.207031 720.890625 134.320312 C 721.550781 133.832031 722.296875 132.730469 722.15625 132.097656 C 722.023438 131.488281 720.851562 130.894531 720.035156 130.683594 C 716.785156 129.835938 713.566406 127.074219 710.394531 131.414062 C 707.703125 135.101562 703.972656 131.402344 700.835938 131.382812 C 697.847656 131.367188 695.269531 130.15625 692.890625 132.910156 C 689.980469 136.285156 688.632812 134.296875 687.519531 131.292969 C 687.386719 130.933594 686.132812 130.574219 685.816406 130.796875 C 685.375 131.113281 685.078125 132.007812 685.148438 132.605469 C 685.300781 133.847656 686.15625 135.160156 685.90625 136.253906 C 685.707031 137.109375 684.046875 138.457031 683.433594 138.269531 C 675.28125 135.792969 667.199219 135.785156 659.078125 138.328125 C 658.164062 138.613281 656.984375 138.863281 656.179688 138.527344 C 653.75 137.519531 651.554688 135.730469 649.058594 135.164062 C 646.808594 134.65625 643.3125 136.445312 642.0625 135.324219 C 638.222656 131.890625 633.964844 132.773438 629.710938 132.660156 C 628.367188 132.625 626.859375 132.972656 625.71875 132.472656 C 624.292969 131.847656 623.171875 130.53125 621.917969 129.511719 C 623.1875 128.488281 624.328125 126.941406 625.765625 126.570312 C 627.644531 126.085938 629.757812 126.527344 631.773438 126.570312 L 631.621094 126.429688 C 631.671875 126.390625 631.722656 126.347656 631.773438 126.308594 C 631.773438 126.382812 631.773438 126.453125 631.773438 126.527344 C 634.589844 128.371094 634.292969 128.066406 636.28125 125.449219 C 637.4375 123.925781 639.652344 123.992188 637.976562 120.871094 C 636.734375 118.550781 639.761719 117.113281 642.105469 116.546875 C 650.863281 114.429688 659.660156 112.449219 668.386719 110.210938 C 671.15625 109.503906 674.433594 108.808594 676.273438 106.929688 C 678.769531 104.375 681.34375 104.226562 684.351562 104.277344 C 689.476562 104.363281 694.804688 106.097656 699.472656 102.246094 C 700.027344 101.789062 701.332031 102.238281 702.324219 102.308594 C 702.65625 103.496094 702.984375 104.683594 703.316406 105.871094 C 704.316406 105.410156 705.917969 105.195312 706.226562 104.449219 C 708.613281 98.660156 714.421875 98.457031 719.070312 97.046875 C 721.070312 96.441406 724.023438 98.960938 726.558594 100.113281 C 727.882812 94.617188 733.640625 96.707031 736.890625 94.355469 C 739.183594 92.695312 743.730469 96.023438 745.253906 91.226562 C 745.273438 91.167969 747.328125 91.667969 748.382812 92.039062 C 752.769531 93.589844 754.800781 92.890625 757.207031 88.851562 C 758.035156 87.457031 758.609375 85.898438 759.550781 84.589844 C 761.613281 81.722656 764.867188 80.917969 767.191406 83.347656 C 772.210938 88.597656 778.21875 91.140625 785.3125 91.167969 C 792.492188 91.195312 796.789062 95.105469 799.335938 101.28125 C 800.996094 105.304688 803.507812 108.351562 807.371094 110.308594 C 807.914062 110.773438 808.457031 111.238281 809.003906 111.703125 C 808.503906 111.976562 808.003906 112.246094 807.507812 112.519531 C 807.507812 112.519531 807.484375 112.5 807.453125 112.46875 C 807.484375 112.5 807.507812 112.519531 807.507812 112.519531 C 807.425781 117.441406 804.648438 116.789062 801.421875 115.574219 Z M 805.765625 111.269531 C 806.234375 111.582031 806.703125 111.890625 807.171875 112.199219 C 807.082031 111.582031 807.125 110.976562 807.300781 110.375 C 806.789062 110.675781 806.277344 110.972656 805.765625 111.269531 Z M 21.617188 324.796875 C 21.742188 324.167969 20.992188 322.972656 20.335938 322.675781 C 19.5 322.300781 18.375 322.585938 16.359375 322.585938 C 16.394531 322.574219 15.46875 322.835938 14.542969 323.09375 C 15.273438 324.042969 15.851562 325.207031 16.789062 325.867188 C 17.492188 326.363281 18.707031 326.457031 19.601562 326.277344 C 20.382812 326.121094 21.492188 325.421875 21.617188 324.796875 Z M 31.847656 336.386719 C 31.949219 336.027344 31.332031 335.46875 31.042969 335.003906 C 30.199219 335.9375 29.355469 336.867188 28.507812 337.800781 C 29.101562 338.011719 29.699219 338.21875 30.648438 338.550781 C 31.046875 337.878906 31.628906 337.183594 31.847656 336.386719 Z M 35.691406 345.558594 C 35.511719 345.351562 35.335938 345.144531 35.160156 344.9375 C 34.960938 345.121094 34.765625 345.308594 34.566406 345.496094 C 34.839844 345.703125 35.117188 345.90625 35.390625 346.113281 C 35.492188 345.929688 35.589844 345.742188 35.691406 345.558594 Z M 39.476562 347.246094 C 39.28125 347.230469 39.085938 347.21875 38.890625 347.207031 C 38.789062 347.394531 38.570312 347.621094 38.617188 347.757812 C 38.699219 347.996094 38.945312 348.179688 39.121094 348.386719 C 39.242188 348.003906 39.359375 347.625 39.476562 347.246094 Z M 47.699219 353.460938 C 47.511719 353.363281 47.285156 353.140625 47.148438 353.1875 C 46.910156 353.269531 46.726562 353.515625 46.519531 353.691406 C 46.898438 353.8125 47.28125 353.929688 47.660156 354.050781 C 47.671875 353.851562 47.6875 353.65625 47.699219 353.460938 Z M 60.664062 365.695312 C 59.699219 364.480469 58.410156 362.855469 57.121094 361.230469 C 56.882812 361.820312 56.460938 362.40625 56.441406 363.003906 C 56.378906 365.273438 58.53125 368.917969 59.527344 368.386719 C 59.957031 368.160156 60.035156 367.265625 60.664062 365.695312 Z M 61.839844 345.773438 C 61.289062 344.597656 61.015625 343.105469 60.121094 342.359375 C 59.058594 341.472656 57.484375 341.113281 56.070312 340.773438 C 55.660156 340.675781 54.550781 341.640625 54.597656 341.75 C 55.210938 343.148438 55.71875 344.769531 56.792969 345.734375 C 57.601562 346.460938 59.179688 346.429688 60.433594 346.515625 C 60.925781 346.550781 61.460938 345.988281 61.839844 345.773438 Z M 70.082031 373.117188 C 70.082031 372.464844 69.144531 371.808594 68.617188 371.152344 C 67.960938 371.683594 66.902344 372.128906 66.761719 372.769531 C 66.628906 373.386719 67.453125 374.207031 68.15625 375.472656 C 69.109375 374.375 70.078125 373.746094 70.082031 373.117188 Z M 70.1875 351.921875 C 68.519531 350.953125 67.121094 350.085938 65.65625 349.355469 C 65.472656 349.265625 64.589844 350.144531 64.601562 350.160156 C 65.601562 351.539062 66.65625 352.875 67.710938 354.210938 C 68.417969 353.558594 69.121094 352.90625 70.1875 351.921875 Z M 101.472656 383.574219 C 101.296875 383.996094 101.121094 384.414062 100.949219 384.832031 C 101.363281 384.65625 101.777344 384.480469 102.195312 384.304688 C 101.953125 384.0625 101.710938 383.820312 101.472656 383.574219 Z M 82.765625 366.941406 C 83.21875 367.566406 83.613281 368.273438 84.210938 368.6875 C 84.515625 368.894531 85.292969 368.410156 85.859375 368.242188 C 85.355469 367.820312 84.910156 367.246094 84.328125 367.019531 C 83.867188 366.839844 83.304688 366.917969 82.765625 366.941406 Z M 75.015625 366.136719 C 75.917969 366.214844 77.339844 366.6875 77.636719 366.300781 C 79.605469 363.738281 80.882812 366.785156 82.476562 366.769531 C 82.488281 365.828125 82.570312 364.878906 82.464844 363.949219 C 82.3125 362.59375 82.992188 359.984375 80.070312 362.21875 C 79.070312 362.984375 77.660156 363.203125 76.625 363.933594 C 75.921875 364.433594 75.539062 365.386719 75.015625 366.136719 Z M 84.371094 387.164062 C 82.898438 385.726562 80.902344 383.46875 79.445312 383.695312 C 77.335938 384.023438 76.171875 386.457031 76.582031 389.007812 C 78.421875 389.222656 80.261719 389.433594 82.101562 389.65625 C 82.824219 389.746094 83.546875 389.855469 84.269531 389.957031 C 84.328125 389 84.816406 387.601562 84.371094 387.164062 Z M 85.082031 374.195312 C 86.496094 374.902344 87.910156 375.609375 89.324219 376.320312 C 89.730469 375.375 90.5 374.40625 90.4375 373.496094 C 90.367188 372.539062 89.503906 371.636719 88.582031 369.992188 C 86.980469 371.914062 86.03125 373.054688 85.082031 374.195312 Z M 91.015625 395.449219 C 90.125 394.429688 89.785156 394.042969 89.449219 393.65625 C 88.691406 394.59375 87.929688 395.53125 87.171875 396.46875 C 87.445312 396.644531 87.804688 397.035156 87.972656 396.964844 C 88.949219 396.550781 89.882812 396.027344 91.015625 395.449219 Z M 98 386.734375 C 98.574219 386.941406 99.683594 385.675781 100.570312 385.015625 C 99.21875 384.394531 97.882812 383.726562 96.484375 383.238281 C 96.179688 383.132812 95.605469 383.792969 95.15625 384.097656 C 96.085938 385.027344 96.882812 386.324219 98 386.734375 Z M 102.402344 406.433594 C 101.1875 405.429688 100.019531 404.355469 98.699219 403.523438 C 98.527344 403.414062 97.554688 404.59375 96.953125 405.175781 C 98.058594 406.007812 99.167969 406.839844 100 407.460938 C 101.21875 406.941406 101.8125 406.6875 102.402344 406.433594 Z M 110.4375 392.066406 C 109.960938 392.074219 109.183594 391.898438 109.046875 392.121094 C 108.085938 393.667969 107.253906 395.300781 106.554688 396.585938 C 107.160156 397.730469 107.457031 398.285156 107.753906 398.839844 C 108.648438 396.582031 109.542969 394.324219 110.4375 392.066406 Z M 117.0625 403.300781 C 117.683594 404.59375 118.304688 405.886719 118.925781 407.179688 C 121.339844 407.519531 123.117188 406.550781 124.359375 404.476562 C 122.472656 404.082031 120.59375 403.660156 118.699219 403.316406 C 118.171875 403.21875 117.613281 403.277344 117.0625 403.300781 Z M 115.425781 402.480469 C 115.84375 402.65625 116.261719 402.828125 116.679688 403.003906 C 116.503906 402.589844 116.328125 402.171875 116.152344 401.757812 C 115.910156 402 115.667969 402.238281 115.425781 402.480469 Z M 117.007812 408.8125 C 117.613281 409.539062 118.214844 410.261719 118.816406 410.988281 C 118.816406 409.816406 118.816406 408.640625 118.820312 407.464844 C 118.214844 407.914062 117.613281 408.363281 117.007812 408.8125 Z M 124.527344 414.324219 C 123.871094 413.585938 123.347656 412.566406 122.527344 412.183594 C 121.496094 411.703125 120.273438 411.632812 119.113281 411.4375 C 119.375 412.726562 114.5 415.398438 120.085938 415.257812 C 120.746094 415.242188 121.433594 415.371094 122.0625 415.222656 C 122.910156 415.027344 123.707031 414.632812 124.527344 414.324219 Z M 134.597656 426.675781 C 133.59375 425.523438 132.59375 424.375 131.273438 422.859375 C 130.308594 423.96875 129.757812 424.601562 129.203125 425.238281 C 130.070312 425.945312 130.839844 426.957031 131.832031 427.269531 C 132.613281 427.515625 133.664062 426.90625 134.597656 426.675781 Z M 147.132812 435.753906 C 146.652344 435.089844 146.292969 434.074219 145.601562 433.742188 C 143.492188 432.726562 140.15625 435.300781 138.898438 431.316406 C 138.675781 430.605469 137 430.351562 135.996094 429.886719 C 136.363281 430.941406 136.585938 432.074219 137.121094 433.039062 C 139.390625 437.144531 141.808594 438.355469 145.691406 437.339844 C 146.183594 437.207031 146.511719 436.460938 147.132812 435.753906 Z M 154.558594 469.164062 C 154.042969 468.777344 153.570312 468.191406 153 468.074219 C 152.59375 467.988281 152.054688 468.53125 151.574219 468.796875 C 152.042969 469.109375 152.484375 469.621094 152.980469 469.679688 C 153.476562 469.742188 154.03125 469.355469 154.558594 469.164062 Z M 156.914062 450.871094 C 156.308594 449.734375 155.953125 448.308594 155.039062 447.535156 C 153.992188 446.644531 152.496094 446.140625 151.117188 445.886719 C 150.667969 445.804688 149.382812 447.226562 149.511719 447.621094 C 149.882812 448.765625 150.585938 450 151.527344 450.703125 C 152.480469 451.410156 153.878906 451.523438 154.773438 451.800781 C 155.746094 451.378906 156.328125 451.125 156.914062 450.871094 Z M 166.800781 476.738281 C 166.21875 476.527344 165.636719 476.3125 165.054688 476.105469 C 164.6875 476.445312 164.320312 476.789062 163.953125 477.132812 C 164.523438 477.359375 165.105469 477.777344 165.660156 477.742188 C 166.058594 477.71875 166.421875 477.09375 166.800781 476.738281 Z M 166.9375 458.972656 C 165.917969 457.828125 164.902344 456.683594 164.023438 455.703125 C 162.894531 456.109375 162.308594 456.320312 161.722656 456.535156 C 162.871094 457.558594 163.964844 458.667969 165.21875 459.542969 C 165.511719 459.75 166.351562 459.183594 166.9375 458.972656 Z M 174.742188 468.4375 C 174.546875 468.421875 174.351562 468.410156 174.152344 468.398438 C 174.054688 468.585938 173.835938 468.8125 173.882812 468.949219 C 173.964844 469.1875 174.207031 469.371094 174.382812 469.578125 C 174.503906 469.195312 174.621094 468.816406 174.742188 468.4375 Z M 198.96875 555.289062 C 198.773438 555.277344 198.574219 555.265625 198.378906 555.253906 C 198.28125 555.4375 198.0625 555.664062 198.109375 555.800781 C 198.191406 556.039062 198.433594 556.222656 198.609375 556.429688 C 198.730469 556.050781 198.847656 555.671875 198.96875 555.289062 Z M 322.890625 577.007812 C 322.878906 578.25 322.742188 579.519531 322.960938 580.722656 C 323.101562 581.484375 323.84375 582.136719 324.316406 582.839844 C 325.121094 582.09375 326.429688 581.46875 326.640625 580.582031 C 327.394531 577.40625 325.429688 576.804688 322.890625 577.007812 Z M 358.855469 555.753906 C 358.667969 555.554688 358.484375 555.359375 358.296875 555.160156 C 358.089844 555.433594 357.882812 555.710938 357.675781 555.984375 C 357.863281 556.085938 358.046875 556.183594 358.234375 556.285156 C 358.441406 556.109375 358.648438 555.929688 358.855469 555.753906 Z M 728.0625 100.933594 C 727.625 100.761719 727.1875 100.585938 726.75 100.414062 C 726.929688 100.847656 727.101562 101.285156 727.277344 101.71875 C 727.539062 101.457031 727.800781 101.195312 728.0625 100.933594 Z M 713.964844 244.511719 C 712.789062 244.257812 711.613281 244.003906 710.4375 243.75 C 709.914062 244.785156 709.390625 245.824219 708.867188 246.859375 C 709.75 246.992188 710.863281 247.523438 711.460938 247.167969 C 712.46875 246.578125 713.148438 245.429688 713.964844 244.511719 Z M 733.378906 179.566406 C 733.203125 179.988281 733.027344 180.410156 732.847656 180.828125 C 733.265625 180.65625 733.683594 180.484375 734.097656 180.3125 C 733.859375 180.0625 733.617188 179.816406 733.378906 179.566406 Z M 734.34375 252.0625 C 733.199219 252.0625 732.394531 252.015625 731.605469 252.09375 C 731.371094 252.117188 731.175781 252.507812 730.960938 252.730469 C 731.75 253.03125 732.523438 253.402344 733.339844 253.574219 C 733.496094 253.609375 733.820312 252.875 734.34375 252.0625 Z M 715.0625 262.226562 C 713.527344 262.488281 711.703125 262.554688 710.609375 263.445312 C 709.484375 264.355469 708.703125 266.105469 708.464844 267.597656 C 708.050781 270.195312 712.351562 273.050781 715.847656 271.898438 C 717.757812 271.269531 719.027344 268.707031 720.15625 267.484375 C 719.917969 264.503906 716.976562 261.898438 715.0625 262.226562 Z M 631.726562 124.40625 C 631.695312 124.449219 631.664062 124.492188 631.632812 124.535156 C 631.675781 124.550781 631.71875 124.566406 631.765625 124.582031 C 631.765625 124.527344 631.761719 124.46875 631.761719 124.414062 C 631.75 124.410156 631.738281 124.410156 631.726562 124.40625 Z M 633.484375 118.480469 C 632.242188 118.242188 631.039062 117.769531 629.792969 117.574219 C 628.019531 117.296875 625.605469 116.347656 624.554688 117.136719 C 621.714844 119.277344 625.316406 120.96875 625.859375 122.859375 C 626.71875 125.863281 629.707031 123.933594 631.726562 124.40625 C 632.40625 123.421875 633.179688 122.480469 633.699219 121.417969 C 634.148438 120.496094 637.136719 119.183594 633.484375 118.480469 Z M 703.589844 260.304688 C 703.011719 261.242188 702.433594 262.179688 702.136719 262.65625 C 702.273438 264.34375 702.089844 265.46875 702.507812 266.277344 C 702.867188 266.96875 703.925781 267.695312 704.660156 267.679688 C 705.277344 267.667969 706.179688 266.707031 706.402344 265.996094 C 706.683594 265.113281 706.714844 263.867188 706.277344 263.109375 C 705.652344 262.019531 704.511719 261.226562 703.589844 260.304688 Z M 720.734375 274.160156 C 721.171875 274.832031 721.949219 275.371094 722.703125 275.707031 C 722.964844 275.824219 723.566406 275.175781 724.015625 274.875 C 723.175781 273.988281 722.335938 273.101562 721.378906 272.09375 C 721.0625 273.023438 720.523438 273.832031 720.734375 274.160156 Z M 806.671875 118.554688 C 806.570312 118.527344 805.933594 119.675781 806.046875 119.792969 C 806.847656 120.625 807.78125 121.328125 808.671875 122.074219 C 808.878906 121.5 809.085938 120.925781 809.558594 119.617188 C 808.613281 119.246094 807.660156 118.828125 806.671875 118.554688 Z M 703.105469 100.765625 C 702.902344 101.21875 702.699219 101.671875 702.496094 102.121094 C 702.957031 101.921875 703.414062 101.71875 703.875 101.515625 C 703.617188 101.265625 703.363281 101.015625 703.105469 100.765625 Z M 702.496094 102.121094 C 702.429688 102.152344 702.363281 102.179688 702.296875 102.210938 C 702.308594 102.242188 702.316406 102.273438 702.324219 102.308594 C 702.351562 102.308594 702.382812 102.316406 702.410156 102.316406 C 702.4375 102.253906 702.46875 102.1875 702.496094 102.121094 Z M 804.332031 122.785156 C 804.125 122.777344 803.902344 123.121094 803.6875 123.308594 C 803.988281 123.519531 804.289062 123.730469 804.59375 123.941406 C 804.699219 123.75 804.808594 123.5625 804.917969 123.375 C 804.722656 123.164062 804.535156 122.796875 804.332031 122.785156 Z M 631.765625 124.582031 C 631.765625 125.160156 631.769531 125.734375 631.769531 126.308594 C 632.261719 125.914062 632.75 125.515625 633.242188 125.121094 C 632.75 124.941406 632.257812 124.761719 631.765625 124.582031 Z M 749.105469 256.714844 C 749.570312 256.742188 750.035156 256.765625 750.496094 256.792969 C 750.273438 256.550781 750.054688 256.304688 749.832031 256.0625 C 749.589844 256.28125 749.347656 256.496094 749.105469 256.714844 Z M 560.765625 258.832031 C 560.535156 258.609375 560.320312 258.230469 560.070312 258.207031 C 559.855469 258.183594 559.601562 258.566406 559.363281 258.769531 C 559.589844 258.980469 559.816406 259.1875 560.042969 259.402344 C 560.261719 259.230469 560.511719 259.03125 560.765625 258.832031 Z M 38.902344 320.792969 C 38.660156 321.328125 38.421875 321.859375 38.179688 322.394531 C 38.714844 322.152344 39.246094 321.914062 39.777344 321.671875 C 39.488281 321.378906 39.195312 321.085938 38.902344 320.792969 Z M 38.140625 322.410156 L 38.160156 322.433594 C 38.167969 322.421875 38.175781 322.40625 38.179688 322.394531 C 38.167969 322.398438 38.152344 322.40625 38.140625 322.410156 Z M 9.839844 340.554688 C 9.851562 340.578125 9.859375 340.597656 9.871094 340.621094 C 9.882812 340.613281 9.894531 340.605469 9.910156 340.597656 C 9.90625 340.59375 9.90625 340.585938 9.90625 340.585938 C 9.882812 340.574219 9.863281 340.566406 9.839844 340.554688 Z M 8.273438 339.855469 C 8.796875 340.089844 9.320312 340.320312 9.839844 340.554688 C 9.605469 340.035156 9.371094 339.511719 9.136719 338.988281 C 8.847656 339.277344 8.5625 339.566406 8.273438 339.855469 Z M 62.613281 381.085938 C 63.179688 381.652344 63.746094 382.214844 64.3125 382.78125 C 64.3125 382.21875 64.3125 381.652344 64.3125 381.089844 C 63.746094 381.085938 63.179688 381.085938 62.613281 381.085938 Z M 64.3125 382.78125 C 64.3125 382.890625 64.3125 383 64.3125 383.109375 C 64.40625 383.105469 64.5 383.105469 64.59375 383.101562 C 64.550781 383.046875 64.511719 382.992188 64.46875 382.9375 C 64.414062 382.886719 64.363281 382.835938 64.3125 382.78125 Z M 64.3125 381.089844 C 64.371094 381.089844 64.433594 381.089844 64.492188 381.089844 C 64.492188 381.085938 64.492188 381.082031 64.488281 381.082031 C 64.429688 381.019531 64.371094 380.960938 64.3125 380.902344 C 64.3125 380.964844 64.3125 381.027344 64.3125 381.089844 Z M 66.351562 383.058594 C 66.386719 383.054688 66.417969 383.054688 66.453125 383.054688 C 66.429688 383.03125 66.410156 383.011719 66.386719 382.988281 C 66.386719 382.988281 66.382812 382.984375 66.378906 382.984375 C 66.371094 383.007812 66.363281 383.03125 66.351562 383.058594 Z M 65.753906 384.613281 C 65.953125 384.09375 66.152344 383.574219 66.351562 383.058594 C 65.765625 383.070312 65.179688 383.085938 64.59375 383.101562 C 64.980469 383.605469 65.367188 384.109375 65.753906 384.613281 Z M 65.753906 384.613281 " fill-opacity="1" fill-rule="nonzero"/></svg>