<?xml version="1.0" encoding="utf-8"?>
<!-- Generator: Adobe Illustrator 16.0.0, SVG Export Plug-In . SVG Version: 6.00 Build 0)  -->
<!DOCTYPE svg PUBLIC "-//W3C//DTD SVG 1.1//EN" "http://www.w3.org/Graphics/SVG/1.1/DTD/svg11.dtd">
<svg version="1.1" id="Layer_1" xmlns="http://www.w3.org/2000/svg" xmlns:xlink="http://www.w3.org/1999/xlink" x="0px" y="0px"
	 width="703px" height="329px" viewBox="267.5 182 703 329" enable-background="new 267.5 182 703 329" xml:space="preserve">
<path fill="#0089CF" d="M333.087,276.958c30.333,0,55.152,24.425,55.152,54.364c0,29.941-24.818,54.365-55.152,54.365
	c-30.465,0-55.153-24.424-55.153-54.365C277.934,301.383,302.753,276.958,333.087,276.958"/>
<path fill="#FFFFFF" d="M333.087,307.948c13,0,23.767,10.505,23.767,23.373c0,12.869-10.636,23.374-23.767,23.374
	c-13.132,0-23.768-10.505-23.768-23.374C309.45,318.454,319.955,307.948,333.087,307.948"/>
<path fill="#FFFFFF" d="M334.531,284.706c-6.566,3.283-28.495,18.252-30.333,45.304c-3.151-3.546-8.404-14.445-8.273-26.395
	l0.263-1.051C298.945,296.524,316.41,283.13,334.531,284.706"/>
<path fill="#FFFFFF" d="M286.47,329.615c3.284,6.566,18.252,28.495,45.304,30.332c-3.415,3.153-14.444,8.407-26.395,8.274
	l-1.049-0.262C298.288,365.202,284.894,347.737,286.47,329.615"/>
<path fill="#FFFFFF" d="M331.774,377.939c6.565-3.283,28.495-18.252,30.333-45.304c3.021,3.546,8.404,14.445,8.272,26.394
	l-0.263,1.052C367.228,366.121,349.896,379.516,331.774,377.939"/>
<path fill="#FFFFFF" d="M379.704,333.03c-3.283-6.566-18.253-28.496-45.304-30.334c3.413-3.152,14.445-8.404,26.394-8.272
	l1.051,0.263C367.885,297.443,381.411,314.908,379.704,333.03"/>
<path d="M583.898,401.707l3.152-9.06l3.02,9.06H583.898z M588.89,385.424h-3.81l-8.929,24.688h4.991l1.444-4.334h8.798l1.444,4.334
	h4.991L588.89,385.424z"/>
<path d="M609.373,405.383c-0.525,0.789-1.576,1.182-3.02,1.182c-1.707,0-2.626-0.654-2.626-2.101c0-1.313,0.786-2.1,2.495-2.1h3.544
	v0.917C609.767,404.334,609.637,404.99,609.373,405.383 M614.364,398.162c0-4.202-2.627-6.436-7.749-6.436
	c-1.575,0-2.757,0.134-3.677,0.526c-1.049,0.395-1.968,1.05-2.757,1.97l2.89,2.758c0.787-1.05,1.969-1.444,3.413-1.444
	c2.233,0,3.282,0.918,3.282,2.758v0.917h-4.201c-1.971,0-3.545,0.525-4.595,1.446c-1.052,1.05-1.577,2.23-1.577,3.807
	c0,1.708,0.525,3.022,1.577,4.072c1.05,1.052,2.494,1.576,4.595,1.576c1.838,0,3.282-0.524,4.465-1.707v1.576h4.466L614.364,398.162
	L614.364,398.162L614.364,398.162z"/>
<path d="M629.335,404.464c-0.525,1.183-1.313,1.708-2.629,1.708c-1.312,0-2.23-0.655-2.626-1.708
	c-0.263-0.656-0.394-1.837-0.394-3.413s0.131-2.758,0.394-3.414c0.525-1.183,1.314-1.706,2.626-1.706
	c1.315,0,2.234,0.523,2.629,1.706c0.262,0.656,0.394,1.838,0.394,3.414S629.597,403.808,629.335,404.464 M634.061,396.85
	c-0.263-1.444-0.789-2.627-1.575-3.414c-1.051-1.052-2.627-1.575-4.464-1.575c-1.841,0-3.416,0.654-4.466,1.837v-1.708h-4.334
	v24.688h4.465v-8.271c1.053,1.183,2.494,1.837,4.335,1.837c1.837,0,3.283-0.524,4.464-1.573c0.786-0.789,1.313-1.971,1.575-3.416
	c0.131-0.919,0.263-2.365,0.263-4.202C634.191,399.211,634.191,397.899,634.061,396.85"/>
<polygon points="654.939,410.112 649.425,410.112 644.961,402.495 643.121,404.728 643.121,410.112 638.525,410.112 
	638.525,385.424 643.121,385.424 643.121,399.343 649.03,391.989 654.547,391.989 648.111,399.211 "/>
<path d="M662.423,388.97h-4.463v-3.678h4.595v3.678H662.423z M662.423,410.112h-4.463v-18.123h4.595v18.123H662.423z"/>
<path d="M688.163,401.97c0,2.627-0.919,4.729-2.628,6.172c-1.706,1.446-3.677,2.101-6.039,2.101c-2.626,0-4.727-0.788-6.304-2.625
	l3.153-3.153c0.918,0.919,1.969,1.446,3.15,1.446c2.626,0,3.809-1.446,3.809-4.203v-16.415h4.858V401.97L688.163,401.97
	L688.163,401.97z"/>
<path d="M696.697,399.343c0-0.655,0.133-1.311,0.395-1.968c0.525-1.183,1.576-1.839,3.021-1.839s2.496,0.656,3.02,1.839
	c0.264,0.524,0.395,1.18,0.395,1.968H696.697z M708.121,400.394c0-2.494-0.654-4.596-2.099-6.171
	c-1.445-1.575-3.414-2.496-5.778-2.496s-4.335,0.788-5.646,2.364c-1.445,1.707-2.102,3.941-2.102,6.828
	c0,6.173,2.758,9.323,8.405,9.323c1.573,0,2.889-0.261,3.938-0.788c0.92-0.394,1.97-1.18,2.89-2.101l-2.758-2.626
	c-1.182,1.183-2.497,1.707-4.07,1.707c-1.183,0-2.233-0.394-2.891-1.182c-0.655-0.789-1.05-1.708-1.05-2.889h11.293v-1.971H708.121z
	"/>
<path d="M715.739,399.343c0-0.655,0.132-1.311,0.394-1.968c0.526-1.183,1.575-1.839,3.021-1.839c1.443,0,2.494,0.656,3.02,1.839
	c0.263,0.524,0.394,1.18,0.394,1.968H715.739z M727.163,400.394c0-2.494-0.656-4.596-2.103-6.171
	c-1.442-1.575-3.413-2.496-5.775-2.496c-2.365,0-4.335,0.788-5.648,2.364c-1.442,1.707-2.231,3.941-2.231,6.828
	c0,6.173,2.757,9.323,8.405,9.323c1.573,0,2.888-0.261,3.938-0.788c0.919-0.394,1.969-1.18,2.888-2.101l-2.757-2.626
	c-1.182,1.183-2.496,1.707-4.069,1.707c-1.314,0-2.233-0.394-2.891-1.182c-0.654-0.789-1.049-1.708-1.049-2.889h11.292V400.394
	L727.163,400.394L727.163,400.394z"/>
<path d="M739.375,410.112h-2.494c-1.706,0-3.02-0.524-3.939-1.707c-0.789-0.919-1.313-2.101-1.313-3.546v-8.929h-1.97v-3.416h1.97
	v-5.384h4.465v5.384h3.151v3.416h-3.151v8.666c0,1.05,0.525,1.575,1.576,1.575h1.575v3.94H739.375z"/>
<rect x="743.314" y="404.99" width="5.253" height="5.122"/>
<polygon points="779.82,410.112 774.962,410.112 774.962,399.736 766.559,399.736 766.559,410.112 761.7,410.112 761.7,385.424 
	766.559,385.424 766.559,395.405 774.962,395.405 774.962,385.424 779.82,385.424 "/>
<path d="M794.003,405.383c-0.524,0.789-1.575,1.182-3.021,1.182c-1.706,0-2.625-0.654-2.625-2.101c0-1.313,0.788-2.1,2.495-2.1
	h3.546v0.917C794.397,404.334,794.265,404.99,794.003,405.383 M798.861,398.162c0-4.202-2.627-6.436-7.747-6.436
	c-1.575,0-2.758,0.134-3.678,0.526c-1.051,0.395-1.968,1.05-2.757,1.97l2.889,2.758c0.919-1.05,1.971-1.444,3.413-1.444
	c2.235,0,3.416,0.918,3.416,2.758v0.917h-4.204c-1.968,0-3.545,0.525-4.595,1.446c-1.051,1.05-1.576,2.23-1.576,3.807
	c0,1.708,0.525,3.022,1.576,4.072c1.05,1.052,2.494,1.576,4.595,1.576c1.841,0,3.285-0.524,4.466-1.707v1.576h4.465L798.861,398.162
	L798.861,398.162L798.861,398.162z"/>
<path d="M829.325,410.112h-4.594v-10.901c0-1.179-0.396-1.968-0.919-2.624c-0.526-0.526-1.183-0.789-1.971-0.789
	s-1.444,0.263-1.971,0.656c-0.656,0.526-1.05,1.445-1.05,2.496v11.031h-4.596V399.08c0-1.181-0.264-1.968-0.92-2.626
	c-0.525-0.523-1.183-0.787-1.969-0.787c-0.788,0-1.577,0.264-2.101,0.787c-0.658,0.526-0.921,1.445-0.921,2.626v10.901h-4.595
	V391.86h4.464v1.706c1.183-1.183,2.758-1.84,4.464-1.84c2.102,0,3.677,0.788,4.859,2.233c1.444-1.445,3.283-2.233,5.385-2.233
	c1.97,0,3.413,0.526,4.462,1.576c1.315,1.313,1.971,3.021,1.971,5.122V410.112L829.325,410.112L829.325,410.112z"/>
<path d="M842.852,405.383c-0.525,0.789-1.577,1.182-3.02,1.182c-1.707,0-2.625-0.654-2.625-2.101c0-1.313,0.786-2.1,2.492-2.1h3.547
	v0.917C843.246,404.334,843.115,404.99,842.852,405.383 M847.84,398.162c0-4.202-2.624-6.436-7.747-6.436
	c-1.575,0-2.756,0.134-3.675,0.526c-1.051,0.395-1.971,1.05-2.758,1.97l2.889,2.758c0.788-1.05,1.97-1.444,3.414-1.444
	c2.231,0,3.283,0.918,3.283,2.758v0.917h-4.203c-1.97,0-3.545,0.525-4.596,1.446c-1.051,1.05-1.575,2.23-1.575,3.807
	c0,1.708,0.524,3.022,1.575,4.072c1.051,1.052,2.496,1.576,4.596,1.576c1.838,0,3.283-0.524,4.466-1.707v1.576h4.466L847.84,398.162
	L847.84,398.162z"/>
<path d="M865.832,393.436l-3.412,3.414c-0.659-0.657-1.578-1.052-2.365-1.052c-0.789,0-1.446,0.263-1.97,0.789
	c-0.658,0.656-0.921,1.445-0.921,2.493v10.901H852.7V391.86h4.464v1.706c1.051-1.313,2.627-1.97,4.597-1.97
	C863.205,391.86,864.781,392.384,865.832,393.436"/>
<path d="M872.924,388.97h-4.596v-3.678h4.596V388.97z M872.924,410.112h-4.596v-18.123h4.596V410.112z"/>
<path d="M898.661,401.97c0,2.627-0.919,4.729-2.627,6.172c-1.576,1.446-3.678,2.101-6.04,2.101c-2.627,0-4.729-0.788-6.304-2.625
	l3.282-3.153c0.919,0.919,1.97,1.446,3.152,1.446c2.627,0,3.939-1.446,3.939-4.203v-16.415h4.859v16.678H898.661z"/>
<path d="M907.195,399.343c0-0.655,0.133-1.311,0.396-1.968c0.524-1.183,1.576-1.839,3.02-1.839c1.445,0,2.496,0.656,3.021,1.839
	c0.262,0.524,0.393,1.18,0.393,1.968H907.195z M918.62,400.394c0-2.494-0.658-4.596-2.101-6.171
	c-1.443-1.575-3.281-2.496-5.777-2.496c-2.364,0-4.334,0.788-5.646,2.364c-1.445,1.707-2.233,3.941-2.233,6.828
	c0,6.173,2.759,9.323,8.404,9.323c1.577,0,2.89-0.261,3.94-0.788c0.918-0.394,1.971-1.18,2.889-2.101l-2.757-2.626
	c-1.183,1.183-2.495,1.707-4.072,1.707c-1.182,0-2.231-0.394-2.889-1.182c-0.656-0.789-1.05-1.708-1.05-2.889h11.292V400.394
	L918.62,400.394L918.62,400.394z"/>
<path d="M926.237,399.343c0-0.655,0.131-1.311,0.395-1.968c0.524-1.183,1.573-1.839,3.019-1.839s2.495,0.656,3.021,1.839
	c0.264,0.524,0.394,1.18,0.394,1.968H926.237z M937.661,400.394c0-2.494-0.655-4.596-2.102-6.171
	c-1.443-1.575-3.414-2.496-5.778-2.496c-2.363,0-4.332,0.788-5.645,2.364c-1.446,1.707-2.233,3.941-2.233,6.828
	c0,6.173,2.758,9.323,8.403,9.323c1.575,0,2.889-0.261,3.94-0.788c0.919-0.394,1.97-1.18,2.889-2.101l-2.758-2.626
	c-1.183,1.183-2.496,1.707-4.071,1.707c-1.182,0-2.229-0.394-2.887-1.182c-0.657-0.789-1.052-1.708-1.052-2.889h11.293V400.394
	L937.661,400.394L937.661,400.394z"/>
<path d="M949.873,410.112h-2.494c-1.707,0-3.021-0.524-3.94-1.707c-0.785-0.919-1.18-2.101-1.18-3.546v-8.929h-1.971v-3.416h1.971
	v-5.384h4.595v5.384h3.151v3.416h-3.151v8.666c0,1.05,0.525,1.575,1.575,1.575h1.576v3.94H949.873z"/>
<rect x="953.814" y="404.99" width="5.119" height="5.122"/>
<path fill="#0089CF" d="M668.729,339.071h21.668v7.746h-31.648v-31.778h3.282c4.071,0.263,6.565,1.444,6.565,5.385L668.729,339.071
	L668.729,339.071z"/>
<path fill="#0089CF" d="M607.01,326.858h4.203c3.151-2.89,6.436-5.778,9.585-8.666c2.758-2.233,5.646-3.021,8.931-3.153h7.746
	l-17.597,15.627l19.961,16.021h-8.141c-4.071,0-6.304-0.525-9.588-3.021l-10.897-8.93h-4.203v11.95h-9.849v-31.647h9.849V326.858z"
	/>
<path fill="#0089CF" d="M511.939,346.687h-9.982v-31.647h4.86c3.151,0.263,4.858,2.364,5.122,5.516v6.171h20.352v-6.302
	c0-1.97,1.707-5.122,5.647-5.385h4.334v5.91v25.868h-9.981v-12.343h-20.352V346.687L511.939,346.687z"/>
<path fill="#0089CF" d="M730.841,322.788h-25.607v4.727h25.607v6.699h-25.607v4.858h25.738v7.746h-35.718v-23.898
	c0.393-3.939,1.969-7.092,8.142-7.748h27.314L730.841,322.788L730.841,322.788z"/>
<path fill="#0089CF" d="M761.438,346.687h-9.982v-11.424l-17.989-20.355h7.748c2.101,0,4.859,0.788,7.224,3.284l7.877,9.322
	c2.759-3.152,5.517-6.171,8.273-9.192c1.444-1.707,3.544-3.02,8.011-3.283h6.697l-17.991,20.354L761.438,346.687L761.438,346.687
	L761.438,346.687z"/>
<path fill="#0089CF" d="M792.164,339.071h21.667v7.746h-31.646v-31.778h3.284c4.07,0.263,6.565,1.444,6.565,5.385L792.164,339.071
	L792.164,339.071z"/>
<path fill="#0089CF" d="M911.661,346.687h-14.575l-19.568-23.111v23.111h-9.979v-31.647h8.141c6.041,0.263,9.063,3.021,11.819,6.304
	l14.051,16.94v-23.244h9.849L911.661,346.687L911.661,346.687z"/>
<path fill="#0089CF" d="M941.732,322.919h-15.627v16.15h16.809c2.102,0,3.676-0.392,4.596-1.312c1.05-0.789,1.444-2.102,1.444-3.939
	v-5.516c0-1.838-0.525-3.283-1.839-4.071C946.065,323.313,944.228,322.919,941.732,322.919 M944.754,315.039
	c4.989,0,8.533,0.788,10.897,2.626c2.231,1.708,3.413,4.334,3.413,8.141v10.9c0,3.545-0.919,6.04-2.755,7.746
	c-1.841,1.576-4.729,2.496-8.536,2.496h-31.517v-31.778h28.497V315.039z"/>
<path fill="#0089CF" d="M483.442,339.857c1.182,0,2.101-0.132,2.626-0.656c0.525-0.394,0.788-1.05,0.788-1.969
	s-0.263-1.708-0.919-1.97c-0.525-0.395-1.969-0.657-3.939-0.788l-15.626-0.395c-3.94-0.131-6.567-0.788-7.88-2.232
	c-1.313-1.313-2.101-3.809-2.101-7.223c0-1.837,0.131-3.282,0.525-4.465c0.394-1.181,0.919-2.1,1.708-2.888
	c0.919-0.918,2.232-1.445,3.676-1.839c1.577-0.394,4.072-0.525,7.487-0.525h15.23c3.809,0,6.436,0.657,8.143,1.97
	c1.313,1.051,2.102,2.759,2.364,4.991H471.23c-1.838,0-3.151,0.131-3.807,0.525c-0.657,0.394-0.919,1.051-0.919,1.969
	c0,0.919,0.262,1.576,0.788,1.97c0.526,0.394,1.576,0.657,3.151,0.788l16.282,0.262c3.677,0.132,6.304,0.92,7.88,2.496
	c1.576,1.575,2.232,4.202,2.232,7.88c0,2.23-0.263,3.938-0.788,5.119c-0.525,1.183-1.576,2.233-2.889,3.152
	c-0.788,0.525-2.102,0.92-3.546,1.183c-1.575,0.264-3.677,0.394-6.565,0.394h-13.262c-5.384,0-9.062-0.524-10.9-1.707
	c-1.576-1.05-2.496-2.889-2.759-5.516L483.442,339.857L483.442,339.857z"/>
<path fill="#0089CF" d="M417.785,346.687h-10.899l17.729-31.647h12.738l17.464,31.647h-10.899l-3.15-5.254h-19.829L417.785,346.687z
	 M424.614,333.818h12.474l-6.303-11.162L424.614,333.818z"/>
<path fill="#0089CF" d="M563.938,347.081c-3.809,0-6.565-0.132-8.404-0.526c-1.707-0.262-3.152-0.919-4.333-1.706
	c-1.182-0.919-2.102-2.102-2.627-3.547c-0.524-1.444-0.787-3.413-0.787-5.908v-8.667c0-2.626,0.263-4.727,0.787-6.302
	c0.526-1.576,1.445-2.758,2.627-3.677c1.182-0.788,2.627-1.313,4.465-1.708c1.838-0.394,4.595-0.524,8.272-0.524h11.686
	c3.677,0,6.436,0.13,8.273,0.524c1.839,0.394,3.284,0.92,4.334,1.708c1.181,0.919,2.1,2.101,2.625,3.677
	c0.526,1.576,0.789,3.546,0.789,5.908v8.799c0,2.494-0.395,4.463-0.789,5.908c-0.525,1.576-1.444,2.758-2.625,3.677
	c-1.051,0.789-2.495,1.313-4.334,1.708c-1.838,0.394-4.597,0.525-8.404,0.525L563.938,347.081L563.938,347.081L563.938,347.081z
	 M566.697,339.201h6.302c3.546,0,5.909-0.394,6.96-1.313c1.182-0.92,1.707-2.495,1.707-4.728v-4.464
	c0-2.365-0.655-3.941-1.707-4.729c-1.182-0.918-3.415-1.312-6.96-1.312h-6.434c-3.545,0-5.909,0.394-7.09,1.312
	c-1.05,0.788-1.708,2.496-1.708,4.99v4.466c0,2.363,0.658,3.808,1.839,4.727C560.787,338.808,563.15,339.201,566.697,339.201"/>
<path fill="#0089CF" d="M827.225,346.687h-10.899l17.858-31.647h12.608l17.464,31.647h-10.898l-3.152-5.254h-19.828L827.225,346.687
	z M834.184,333.818h12.475l-6.302-11.162L834.184,333.818z"/>
<path fill="#0089CF" d="M342.016,318.716c0.526-1.182,1.051-2.494,1.182-3.808h-17.071l-0.395,0.263l-0.524,1.576
	c-0.395,1.182,0.524,1.051,0.918,1.182c1.313,0.657,1.838,1.576,1.576,2.758l-5.384,16.81c-0.656,1.837-2.101,2.101-4.201,2.361
	c-0.395,1.182-0.526,1.444-0.788,2.495l0.393,0.395h30.728l3.808-12.081c-0.788-0.263-1.839-0.263-3.021,0
	c-0.788,1.182-0.92,3.152-1.838,4.728c-0.526,1.05-1.576,1.969-3.02,2.758c-3.021,1.181-4.991,0.656-9.455,0.788
	c-0.395,0-0.789,0-1.051-0.132c-0.657-0.13-0.657-0.263-0.526-0.788l5.515-17.596C339.126,319.11,340.571,318.848,342.016,318.716"
	/>
<g>
	<g>
		<rect x="245.5" y="244.523" fill="none" width="746" height="32.434"/>
	</g>
	<g>
		<rect x="245.5" y="416.677" fill="none" width="746" height="32.437"/>
	</g>
	<g>
		<rect x="245.5" y="244.523" fill="none" width="32.434" height="204.72"/>
	</g>
	<g>
		<rect x="959.064" y="244.655" fill="none" width="32.436" height="204.721"/>
	</g>
</g>
</svg>
