<?xml version="1.0" encoding="utf-8"?>
<!-- Generator: Adobe Illustrator 16.0.0, SVG Export Plug-In . SVG Version: 6.00 Build 0)  -->
<!DOCTYPE svg PUBLIC "-//W3C//DTD SVG 1.1//EN" "http://www.w3.org/Graphics/SVG/1.1/DTD/svg11.dtd">
<svg version="1.1" id="Layer_1" xmlns="http://www.w3.org/2000/svg" xmlns:xlink="http://www.w3.org/1999/xlink" x="0px" y="0px"
	 width="703px" height="331px" viewBox="0 0 703 331" enable-background="new 0 0 703 331" xml:space="preserve">
<g transform="translate(0.000000,800.000000) scale(0.100000,-0.100000)">
	<path fill="#EC429A" d="M1614.414,7744.892c-213.516-45.361-470.825-148.594-581.089-233.848
		c-78.999-61.006-118.101-117.314-154.863-226.807c-31.289-90.723-21.895-129.834,31.284-129.834
		c14.077,0,97.759,31.289,197.09,73.525c93.853,40.664,172.056,72.734,173.623,71.953c0.786-1.572-5.474-22.686-14.072-48.496
		c-9.39-25.029-29.722-89.941-46.929-143.906c-16.421-53.965-71.953-227.588-123.574-387.139
		c-51.611-158.76-131.392-407.471-177.534-551.377c-46.147-143.916-100.894-314.404-121.23-379.326
		c-87.593-270.605-132.954-423.105-136.079-456.738c-1.572-16.426-7.041-37.549-11.729-46.152
		c-4.702-9.375-8.613-51.621-7.827-96.982c0-67.256,3.125-86.035,17.207-111.836c41.455-75.088,188.481-114.961,249.487-67.256
		c12.515,10.166,23.467,35.195,36.763,84.463l18.765,69.6l27.378-53.955c32.847-66.475,93.848-129.053,154.858-158.77
		c43.013-21.113,53.179-22.676,156.416-25.02c96.196-2.344,118.882,0,168.154,14.072c108.716,32.061,224.458,96.191,315.972,174.414
		c25.806,22.676,51.611,43.799,56.309,48.496c50.054,40.664,204.907,243.223,252.612,330.039l18.779,33.623l25.024-45.361
		c34.409-60.996,82.9-114.961,126.694-140.771c49.282-28.164,121.23-29.727,173.628-2.344
		c41.45,21.895,130.615,110.264,184.58,183.789l37.539,51.621l14.082-45.371c25.806-84.473,94.629-142.334,168.931-142.334
		c66.475,0,108.716,20.332,169.717,81.338c87.598,89.16,182.227,240.107,322.227,513.828c36.758,72.754,69.6,132.188,71.953,132.188
		c13.301,0,47.715-42.246,47.715-58.652c0-18.77-29.727-107.939-54.756-164.258c-7.822-17.197-24.248-60.996-36.768-97.754
		c-18.76-57.09-21.885-78.984-21.885-152.51c0-80.557,1.563-88.369,23.447-128.262c44.59-81.338,139.219-141.563,220.562-141.563
		c34.414,0,56.309,5.479,89.941,22.676l45.352,23.467l4.688-21.113c19.57-93.076,53.203-154.072,115.762-210.391
		c114.961-104.023,235.41-90.723,367.598,39.092c58.652,58.672,136.074,168.945,190.84,272.188
		c33.613,63.35,71.934,162.676,71.934,186.152c0,12.5,4.688,11.729,43.789-8.623c24.258-11.729,52.422-21.895,61.797-21.895
		c15.645,0,16.426-3.135,17.227-71.953c0-64.131,2.324-78.213,21.895-115.752c11.719-23.467,42.227-64.131,68.027-90.713
		c104.023-108.711,219.766-119.668,384.805-36.768c30.488,15.645,64.902,34.404,77.422,43.018l21.113,15.645l54.745-54.746
		c57.109-57.09,129.043-100.117,199.453-119.668c53.164-14.863,175.176-12.52,238.535,3.916
		c113.398,30.498,271.387,122.002,464.551,269.814c103.242,79.004,152.52,124.355,210.391,194.746
		c45.371,56.309,47.715,61.797,50.84,107.93c3.125,42.236,0,56.318-20.332,98.564c-24.238,50.82-57.871,92.275-74.297,92.275
		c-15.645,0-24.258-8.604-86.816-84.473c-106.367-128.271-229.941-240.098-372.285-337.08
		c-165.801-112.627-311.27-187.705-366.016-188.486c-52.402,0-86.816,33.633-101.68,100.107l-7.031,31.289l64.922,51.611
		c190.82,151.729,348.027,336.309,427.793,502.891c35.195,74.297,46.152,140.781,28.945,181.455
		c-13.301,32.061-101.68,114.961-142.344,133.74c-46.934,21.113-109.492,20.322-158.77-3.135
		c-53.965-25.029-165.02-124.355-236.973-211.963c-146.249-177.52-219.765-346.455-220.565-506.006v-59.434l-48.477-39.111
		c-76.641-60.996-147.031-96.201-200.996-100.889c-43.027-3.916-46.934-3.125-59.434,16.426
		c-25.039,37.539,2.344,131.387,89.16,306.572c45.352,92.285,82.129,142.354,188.496,257.324
		c116.522,125.898,129.022,157.979,83.672,211.943c-14.863,16.416-35.977,45.361-46.934,63.35
		c-26.582,42.227-50.82,49.277-85.254,25.029c-117.305-82.119-218.984-212.725-318.32-411.387
		c-25.801-52.402-53.965-99.316-62.559-104.014c-8.594-3.916-31.27-7.822-50.84-7.822c-43.789,0-53.945,13.291-66.484,86.035
		c-18.77,113.398-37.539,140-88.359,129.043c-39.102-8.594-96.992-39.883-132.969-72.744l-32.051-28.936l5.469-57.871
		c5.469-71.162-7.813-113.408-86.816-266.689c-55.527-107.148-117.305-193.975-172.832-243.242
		c-39.883-35.195-59.453-36.758-80.566-7.051c-23.477,32.861-39.902,215.869-23.477,260.449
		c3.926,10.166,32.852,47.715,64.922,84.463c245.567,282.354,503.653,633.506,683.555,931.484
		c139.219,229.932,300.332,570.146,300.332,633.506c0,57.871-79.785,170.488-142.344,202.559
		c-82.91,42.227-147.031,6.25-312.832-172.852c-93.066-100.098-100.879-109.482-178.32-208.027
		c-63.359-81.338-208.828-287.031-217.422-308.154c-2.344-6.25-21.113-38.32-41.446-71.162
		c-56.328-90.732-164.258-311.279-211.953-433.301c-78.203-197.861-119.668-338.633-150.176-502.09
		c-21.094-118.096-35.176-142.344-109.492-193.955c-47.695-32.861-70.391-32.07-83.672,1.553
		c-16.44,44.58,7.813,126.699,94.629,323.018c50.059,111.826,57.09,132.168,57.09,175.186c0,71.943-14.844,98.555-82.109,145.459
		c-83.696,58.662-90.728,78.213-57.109,160.342c28.145,67.256,31.27,93.848,16.426,117.305
		c-27.363,42.246-107.925,61.006-165.015,39.893c-79.785-30.498-144.697-150.938-144.697-268.271
		c0-46.123-3.916-57.08-66.475-180.654c-167.373-330.82-263.574-480.986-331.616-516.982c-14.077-7.803-16.421-6.25-21.118,11.748
		c-8.604,32.842,22.681,131.396,98.545,314.404c78.994,188.486,86.816,218.193,66.484,248.701
		c-15.645,24.248-68.823,49.287-104.805,50.059c-47.705,0-105.586-77.422-240.107-320.664
		c-116.533-212.725-169.717-288.604-238.54-338.652c-35.977-26.582-75.859-28.145-99.326-3.135
		c-104.019,111.064-0.776,359.014,258.877,621.777c97.759,99.336,136.084,122.793,197.871,122.793
		c43.799,0,50.835-2.344,89.941-32.061c53.965-41.455,71.172-50.059,98.545-50.059c79.771,1.572,135.308,131.396,86.03,204.131
		c-40.669,60.215-109.492,82.119-236.196,75.078c-88.374-5.479-145.469-21.113-230.713-64.131
		c-122.012-61.787-261.226-190.049-351.948-325.352l-45.361-68.047l-16.426,45.361c-43.018,118.105-148.599,223.691-261.221,261.221
		c-11.733,3.916-2.349,14.092,46.924,48.496c228.374,163.457,374.624,319.873,509.932,546.68
		c109.492,183.018,119.663,323.018,36.758,492.734c-80.562,165.811-229.16,285.469-410.601,331.611
		c-57.095,14.082-88.389,16.426-226.812,15.645C1723.911,7763.671,1687.934,7760.546,1614.414,7744.892z M2091.499,7522.001
		c111.836-16.436,210.386-86.045,234.634-165.811c17.207-57.881,14.077-103.242-10.171-174.414
		c-36.758-108.711-111.055-222.891-249.487-384.795c-132.178-154.854-443.457-383.232-540.43-397.295
		c-57.881-7.822-175.2-32.852-199.438-42.246c-21.118-7.813-21.899-7.813-16.421,8.613c34.404,112.617,99.321,319.873,136.079,432.5
		c65.698,201.006,86.035,279.98,91.514,355.85c5.469,79.775,0.771,91.514-65.703,161.904l-45.361,48.477l50.835,21.123
		c150.947,62.568,334.741,115.752,453.623,132.168C2025.805,7531.386,2026.592,7531.386,2091.499,7522.001z M4664.609,7102.001
		c-126.699-340.986-391.055-787.578-646.797-1092.598c-3.125-4.678,12.5,41.465,35.977,101.67
		c122.793,319.111,243.223,557.656,387.93,768.818c78.984,115.752,220.547,275.293,233.066,262.783
		C4677.129,7140.331,4672.441,7122.343,4664.609,7102.001z M5697.753,6175.214c-46.914-118.086-181.426-290.947-297.188-380.088
		l-46.152-35.986l4.707,25.029c9.375,46.143,54.746,143.916,93.066,201.006c45.371,68.037,126.699,153.291,193.965,203.34
		C5704.042,6230.751,5718.104,6226.845,5697.753,6175.214z M1722.348,6161.913c32.07-8.594,73.525-22.676,90.728-31.279
		c157.197-80.547,180.659-254.18,67.251-495.068l-25.024-53.184l-18.77,20.342c-32.847,35.186-123.569,90.713-181.445,111.055
		c-164.243,57.09-371.499-2.344-557.636-159.551l-40.669-34.414l42.231,143.125c22.681,78.213,58.662,202.568,79.775,275.313
		l37.539,132.949l74.302,6.25c86.03,7.051,194.746,34.424,283.896,71.172c35.2,14.092,68.833,26.592,75.869,27.373
		C1657.436,6175.995,1689.497,6169.745,1722.348,6161.913z M1680.112,5503.397c28.945-10.176,39.888-27.373,39.888-64.141
		c0-61.787-25.029-93.848-145.474-186.123c-98.54-75.879-183.789-116.553-242.451-116.553c-35.19,0-68.818,30.518-80.552,72.734
		c-8.604,29.727-7.822,39.111,7.827,79.775c13.291,37.529,29.712,59.453,76.641,105.596
		c61.001,60.215,103.232,86.025,175.185,105.576C1560.454,5513.563,1646.484,5515.126,1680.112,5503.397z"/>
	<path fill="#EC429A" d="M5323.925,6956.532c-77.422-35.977-181.464-143.115-230.702-235.42
		c-50.859-96.973-43.828-183.789,19.531-255.732c28.945-33.643,79.004-57.881,105.585-51.631
		c10.156,3.135,22.676,13.301,28.164,22.695c5.469,10.166,38.301,40.664,73.496,68.818
		c91.504,71.953,177.559,161.895,204.141,211.162c43.008,78.994,26.582,143.125-57.109,221.338
		c-34.395,32.061-43.77,36.758-72.715,36.758C5375.546,6974.521,5344.257,6966.698,5323.925,6956.532z"/>
	<path fill="#EC429A" d="M5966.815,5273.456c0-17.207,3.125-19.561,27.363-19.561h27.363v-67.246
		c0-64.922,0.801-66.484,17.227-64.141c17.207,2.344,17.207,5.479,14.844,67.256l-2.324,64.131h28.145h28.164v-66.475
		c0-65.693,0-66.475,19.551-66.475c18.77,0,19.551,2.334,20.313,45.361c0,24.248,2.363,39.102,3.926,32.852
		c21.895-67.266,28.145-78.213,45.371-78.213c14.844,0,20.313,7.041,29.707,41.455l12.52,40.654l0.781-40.654
		c0.781-39.121,2.344-41.455,20.332-41.455h20.332l-2.344,84.463l-2.344,83.682h-23.457c-21.133,0-23.477-3.125-39.902-54.736
		c-10.156-32.061-19.551-50.059-21.895-43.018c-2.344,6.25-11.738,31.27-19.57,54.746c-12.5,35.195-18.75,43.799-34.395,45.361
		s-20.332-1.563-23.477-15.654l-3.125-17.969l-1.563,17.969c-0.781,16.436-3.906,17.217-71.172,17.217
		C5967.597,5293.007,5966.815,5293.007,5966.815,5273.456z"/>
</g>
</svg>
