<?xml version="1.0" encoding="utf-8"?>
<!-- Generator: Adobe Illustrator 16.0.0, SVG Export Plug-In . SVG Version: 6.00 Build 0)  -->
<!DOCTYPE svg PUBLIC "-//W3C//DTD SVG 1.1//EN" "http://www.w3.org/Graphics/SVG/1.1/DTD/svg11.dtd">
<svg version="1.1" id="Layer_1" xmlns="http://www.w3.org/2000/svg" xmlns:xlink="http://www.w3.org/1999/xlink" x="0px" y="0px"
	 width="703px" height="331px" viewBox="248.5 179 703 331" enable-background="new 248.5 179 703 331" xml:space="preserve">
<g>
	<path d="M290.704,352.198v13.206c0,7.246-4.47,12.014-11.615,12.014h-14.396v-69.501h13.701c7.15,0,11.614,4.766,11.614,12.012
		v11.519c0,5.558-2.384,8.934-6.456,10.223C288.023,342.961,290.704,346.338,290.704,352.198z M272.242,314.568v23.924h3.478
		c5.361,0,6.752-1.492,6.752-5.759v-12.411c0-4.268-1.391-5.759-6.752-5.759h-3.478V314.568z M276.409,345.148h-4.167v25.612h4.167
		c5.361,0,6.752-1.492,6.752-5.76v-14.1C283.161,346.635,281.771,345.148,276.409,345.148z"/>
	<path d="M358.102,319.929v45.47c0,6.651-4.47,12.904-13.802,12.904c-9.136,0-13.801-6.253-13.801-12.904v-45.47
		c0-6.651,4.666-12.904,13.801-12.904C353.632,307.025,358.102,313.278,358.102,319.929z M344.597,313.872h-0.594
		c-4.072,0-5.956,3.572-5.956,7.05v43.485c0,3.478,1.884,7.05,5.956,7.05h0.594c4.072,0,5.956-3.572,5.956-7.05v-43.485
		C350.553,317.444,348.669,313.872,344.597,313.872z"/>
	<path d="M425.237,352.198v13.206c0,7.246-4.469,12.014-11.614,12.014h-14.396v-69.501h13.7c7.15,0,11.615,4.766,11.615,12.012
		v11.519c0,5.558-2.384,8.934-6.456,10.223C422.557,342.961,425.237,346.338,425.237,352.198z M406.77,314.568v23.924h3.478
		c5.36,0,6.752-1.492,6.752-5.759v-12.411c0-4.268-1.392-5.759-6.752-5.759h-3.478V314.568z M410.942,345.148h-4.167v25.612h4.167
		c5.362,0,6.753-1.492,6.753-5.76v-14.1C417.695,346.635,416.304,345.148,410.942,345.148z"/>
	<path d="M492.374,352.198v13.206c0,7.246-4.469,12.014-11.614,12.014h-14.396v-69.501h13.701c7.15,0,11.615,4.766,11.615,12.012
		v11.519c0,5.558-2.384,8.934-6.456,10.223C489.693,342.961,492.374,346.338,492.374,352.198z M473.912,314.568v23.924h3.477
		c5.362,0,6.752-1.492,6.752-5.759v-12.411c0-4.268-1.39-5.759-6.752-5.759h-3.477V314.568z M478.079,345.148h-4.172v25.612h4.172
		c5.361,0,6.752-1.492,6.752-5.76v-14.1C484.831,346.635,483.439,345.148,478.079,345.148z"/>
	<path d="M535.407,307.917h7.543v69.495h-7.543V307.917z"/>
	<path d="M658.451,352.198v13.206c0,7.246-4.47,12.014-11.614,12.014H632.44v-69.501h13.7c7.151,0,11.614,4.766,11.614,12.012
		v11.519c0,5.558-2.383,8.934-6.454,10.223C655.771,342.961,658.451,346.338,658.451,352.198z M639.984,314.568v23.924h3.476
		c5.362,0,6.753-1.492,6.753-5.759v-12.411c0-4.268-1.391-5.759-6.753-5.759h-3.476V314.568z M644.156,345.148h-4.167v25.612h4.167
		c5.361,0,6.753-1.492,6.753-5.76v-14.1C650.909,346.635,649.518,345.148,644.156,345.148z"/>
	<path d="M711.489,347.432h-4.37v29.98h-7.543v-69.495h14.498c7.15,0,11.614,4.766,11.614,12.012v15.489
		c0,5.463-2.484,9.434-6.752,11.122l10.426,30.878h-7.942L711.489,347.432z M707.125,340.78h4.269c5.36,0,6.752-1.492,6.752-5.759
		v-14.694c0-4.267-1.392-5.759-6.752-5.759h-4.269V340.78z"/>
	<path d="M794.014,319.929v45.47c0,6.651-4.47,12.904-13.803,12.904c-9.136,0-13.802-6.253-13.802-12.904v-45.47
		c0-6.651,4.666-12.904,13.802-12.904C789.549,307.025,794.014,313.278,794.014,319.929z M780.515,313.872h-0.595
		c-4.071,0-5.956,3.572-5.956,7.05v43.485c0,3.478,1.885,7.05,5.956,7.05h0.595c4.071,0,5.955-3.572,5.955-7.05v-43.485
		C786.47,317.444,784.58,313.872,780.515,313.872z"/>
	<path d="M940.5,307.917v69.495h-7.15l-14.497-48.651v48.651h-7.05v-69.495h7.15l14.497,48.549v-48.549H940.5L940.5,307.917z"/>
	<path d="M874.861,307.917l-7.15,69.495h-7.245l-7.448-51.527l-7.447,51.527h-7.245l-7.151-69.495h7.151l4.564,48.347l6.853-48.347
		h6.551l6.854,48.347l4.564-48.347H874.861z"/>
</g>
</svg>
