<?xml version="1.0" encoding="utf-8"?>
<!-- Generator: Adobe Illustrator 16.0.0, SVG Export Plug-In . SVG Version: 6.00 Build 0)  -->
<!DOCTYPE svg PUBLIC "-//W3C//DTD SVG 1.1//EN" "http://www.w3.org/Graphics/SVG/1.1/DTD/svg11.dtd">
<svg version="1.1" id="Layer_1" xmlns="http://www.w3.org/2000/svg" xmlns:xlink="http://www.w3.org/1999/xlink" x="0px" y="0px"
	 width="703px" height="331px" viewBox="248.5 179 703 331" enable-background="new 248.5 179 703 331" xml:space="preserve">
<g>
	<polygon fill="#004B88" points="257.383,254.921 943.5,254.921 943.5,428.06 430.51,428.06 	"/>
	<g>
		<g>
			<path fill="#FFFFFF" d="M462.067,368.483c-5.123,1.259-10.831,2.713-20.022,2.713c-17.992,0-38.785-9.093-38.785-34.627
				c0-23.504,16.44-35.203,38.687-35.203c6.869,0,13.542,1.552,20.021,3.483l-1.454,14.607c-5.806-3.191-11.416-4.742-17.601-4.742
				c-12.762,0-21.084,9.29-21.084,21.854c0,13.25,9.387,21.282,22.539,21.282c5.903,0,11.893-1.555,16.831-3.484L462.067,368.483z"
				/>
		</g>
		<g>
			<path fill="#FFFFFF" d="M505.409,333.563c-1.932-0.575-3.875-0.575-5.904-0.575c-8.128,0-12.675,5.902-12.675,15.768v21.28
				h-17.406v-50.385h15.865v9.289h0.195c2.997-6.38,7.347-10.45,14.899-10.45c2.029,0,4.157,0.293,5.904,0.586L505.409,333.563z"/>
		</g>
		<g>
			<path fill="#FFFFFF" d="M508.208,344.882c0-16.734,12.675-26.402,29.312-26.402c16.634,0,29.309,9.668,29.309,26.402
				c0,16.635-12.675,26.304-29.309,26.304C520.883,371.186,508.208,361.517,508.208,344.882z M548.837,344.882
				c0-7.542-3.288-14.215-11.317-14.215c-8.032,0-11.32,6.673-11.32,14.215c0,7.444,3.288,14.117,11.32,14.117
				C545.549,358.999,548.837,352.326,548.837,344.882z"/>
		</g>
		<g>
			<path fill="#FFFFFF" d="M575.25,319.641h15.866v9.289h0.193c3.483-7.249,10.44-10.449,18.373-10.449
				c7.163,0,13.055,3.092,15.768,9.668c4.059-6.771,10.733-9.668,17.895-9.668c14.51,0,17.797,8.224,17.797,21.854v29.691h-17.417
				v-27.086c0-5.708-2.028-9.962-6.966-9.962c-6.187,0-9.865,4.938-9.865,15.767v21.281h-17.406v-27.086
				c0-5.708-2.029-9.962-6.967-9.962c-6.185,0-9.864,4.938-9.864,15.767v21.281H575.25V319.641z"/>
		</g>
		<g>
			<path fill="#FFFFFF" d="M671.592,319.641h16.059v9.094h0.196c3.482-7.065,10.829-10.255,18.762-10.255
				c13.923,0,21.563,13.25,21.563,25.436c0,14.899-8.029,27.27-23.018,27.27c-6.086,0-12.673-2.224-15.962-8.226h-0.194v27.369
				h-17.405V319.641z M699.631,331.827c-6.38,0-10.634,5.611-10.634,13.153c0,7.347,4.84,12.859,10.634,12.859
				c6.576,0,10.548-5.513,10.548-13.544C710.179,337.632,706.402,331.827,699.631,331.827z"/>
		</g>
		<g>
			<path fill="#FFFFFF" d="M732.143,319.641h10.255v-11.318l17.124-5.317v16.635h12.187v12.186H759.51v18.568
				c0,6.087,1.455,9.191,6.967,9.191c1.737,0,3.581-0.392,5.318-0.673l0.585,11.317c-3.287,0.391-6.576,0.966-10.929,0.966
				c-15.57,0-19.346-6.868-19.346-18.858v-20.5h-9.963V319.641z"/>
		</g>
		<g>
			<path fill="#FFFFFF" d="M777.112,344.882c0-16.734,12.674-26.402,29.31-26.402s29.311,9.668,29.311,26.402
				c0,16.635-12.664,26.304-29.311,26.304C789.786,371.186,777.112,361.517,777.112,344.882z M817.74,344.882
				c0-7.542-3.289-14.215-11.318-14.215s-11.318,6.673-11.318,14.215c0,7.444,3.289,14.117,11.318,14.117
				S817.74,352.326,817.74,344.882z"/>
		</g>
		<g>
			<path fill="#FFFFFF" d="M844.143,319.641h15.865v9.289h0.195c3.483-7.249,10.449-10.449,18.372-10.449
				c13.737,0,19.25,9.668,19.25,20.118v31.438h-17.406v-24.384c0-9.474-3.287-12.675-8.03-12.675
				c-7.15,0-10.828,4.938-10.828,15.767v21.281h-17.406v-50.385H844.143z"/>
		</g>
	</g>
</g>
</svg>
