<?xml version="1.0" encoding="utf-8"?>
<!-- Generator: Adobe Illustrator 16.0.0, SVG Export Plug-In . SVG Version: 6.00 Build 0)  -->
<!DOCTYPE svg PUBLIC "-//W3C//DTD SVG 1.1//EN" "http://www.w3.org/Graphics/SVG/1.1/DTD/svg11.dtd">
<svg version="1.1" id="Layer_1" xmlns="http://www.w3.org/2000/svg" xmlns:xlink="http://www.w3.org/1999/xlink" x="0px" y="0px"
	 width="703px" height="331px" viewBox="248.5 179 703 331" enable-background="new 248.5 179 703 331" xml:space="preserve">
<g>
	<g>
		<g>
			
				<linearGradient id="SVGID_1_" gradientUnits="userSpaceOnUse" x1="-32.3638" y1="371.1514" x2="-32.3638" y2="244.542" gradientTransform="matrix(0.689 0 0 -0.689 459.6555 513.2215)">
				<stop  offset="0" style="stop-color:#DF5316"/>
				<stop  offset="1" style="stop-color:#F3D000"/>
			</linearGradient>
			<path fill="url(#SVGID_1_)" d="M437.302,257.5c49.634,0,90.674,38.568,94.542,87.234h-0.967H343.836h-0.967
				C346.737,296.067,387.668,257.5,437.302,257.5"/>
			<path fill="#192F8A" d="M435.261,341.512v-1.291c-5.908-0.858-10.637-5.479-11.604-11.279h-1.825v-1.182h-7.844l-0.858-1.504
				h8.809v-1.288h1.719c0.861-6.016,5.588-10.744,11.604-11.603v-1.504h3.974v1.504c6.017,0.859,10.745,5.587,11.497,11.603h1.825
				v1.288h8.703l-0.753,1.504h-7.841v1.182h-1.828c-0.967,5.801-5.587,10.421-11.495,11.279v1.291H435.261z"/>
			<path fill="#FFFFFF" d="M433.434,315.836v2.148c-2.148,0.215-3.975,1.503-6.552,4.083
				C427.955,318.843,430.426,316.91,433.434,315.836z"/>
			<path fill="#FFFFFF" d="M440.848,337.751v-2.15c2.148-0.213,3.974-1.502,6.552-3.974
				C446.326,334.851,443.855,336.678,440.848,337.751z"/>
			<path fill="#FFFFFF" d="M449.334,326.149c-2.041-3.868-4.618-6.983-9.024-7.52v-3.116
				C445.682,317.018,448.583,320.669,449.334,326.149z"/>
			<rect x="439.234" y="314.653" fill="#FFFFFF" width="1.183" height="15.042"/>
			<path fill="#FFFFFF" d="M425.914,327.438c2.041,3.761,4.512,6.768,8.703,7.412v3.01
				C429.567,336.355,426.773,332.702,425.914,327.438z"/>
			<rect x="434.617" y="323.893" fill="#FFFFFF" width="1.181" height="15.041"/>
			<path fill="#192F8A" d="M459.432,330.661c-2.148,3.975-3.759,9.884-3.65,14.073l13.32-0.105
				c-2.687-4.835-0.106-9.885,4.405-12.893c-1.611,4.62-3.224,8.702-1.934,12.893l13.536-0.109c-1.612-2.577-2.471-5.37-1.504-8.594
				c1.396-4.834,3.759-8.702,5.801-13.214c4.835-0.108,9.562-1.181,14.075-3.223c-0.432,3.008-1.29,6.983-2.257,9.777
				c-1.827,4.834-4.513,11.065-5.91,15.253h13.322c-1.505-4.726,3.438-13.32,5.479-16.114l0.752,1.504
				c0.322,0.752,0.322,1.182-0.107,1.934c-0.645,1.396-1.719,2.792-2.686,3.974l8.271,6.34c0.108-0.753,0.216-1.612,0.537-2.255
				c1.396-3.223,3.33-6.339,4.943-9.241c1.396-2.793,1.073-3.33-0.432-5.802c-1.61-2.578-3.651-4.834-3.975-8.058
				c-0.214-3.866-0.429-8.379,0.753-12.032c1.073-2.148,1.288-2.578,3.653-2.578c2.684,0.753,2.04,0.43,4.297,1.827
				c-0.323-1.397-1.396-2.579-1.828-3.653c3.116,0.215,5.372,2.579,8.597,4.834c3.545,2.47,7.949,4.189,13.213,1.503
				c3.008-1.718,4.084-4.297,4.404-7.735c0-2.148-0.107-4.083-0.967-6.016c-0.858-1.934-2.04-3.438-3.115-5.479
				c-0.967-2.793,0.431-6.124,3.224-7.413c-1.72-0.215-2.363,0-3.974-0.322c-0.754-2.901-0.646-3.33-0.754-3.546
				c-2.793,3.008-4.297,6.016-3.008,10.099c0.967,2.793,2.472,5.158,3.115,8.166c0.322,1.396-0.323,4.512-2.148,4.619
				c-1.934,0.214-2.687-2.148-3.438-3.76c-0.644-1.611-1.396-2.687-2.363-4.083c-1.825-2.255-4.082-3.867-6.23-5.908
				c-1.073-1.29-2.687-3.331-3.76-4.62c-1.29-1.611-2.363-2.041-4.298-2.901c-0.751-0.215-1.397-0.322-2.148-0.429
				c-3.331,0-6.447-0.323-9.884-0.645c-4.728,0.429-6.339,2.041-9.884,4.083c-2.579,1.181-4.834,1.181-8.702,1.396
				c-6.982,0.323-12.032-0.537-14.826-0.322c-2.578,0.43-4.082,0.859-6.445,2.256c-2.255,1.719-4.083,3.975-5.908,6.338
				c-3.009,3.976-6.125,6.231-7.629,11.496c-0.536,2.471-0.967,4.619-1.289,7.091c-0.322,2.9-0.322,6.23,1.505,9.023l1.073-0.645
				c-1.396-3.223-1.181-5.801-0.537-7.091c2.472,3.009,3.33,6.554,2.795,8.811C463.73,322.818,461.151,327.008,459.432,330.661z"/>
			<path fill="#FFFFFF" d="M528.296,292.307c-1.182-0.322-2.793-0.858-2.793-2.363c0.109-1.934,4.942-1.182,5.588,0.752
				C532.058,292.737,530.124,292.737,528.296,292.307z"/>
			<path fill="#FFFFFF" d="M512.934,306.919c-0.537-4.834-1.825-8.488-5.802-10.529c-3.33-1.719-6.874-4.835-6.445-9.884
				c3.331-0.322,5.158-1.504,7.735-4.082c1.826-1.719,5.05-3.116,8.81-2.901c1.612,0.108,3.331,0.43,4.62,1.29
				c-2.473-0.537-4.298-0.537-6.876,0.429c-2.042,0.752-3.546,2.042-5.049,3.653c-1.719,1.826-3.438,3.975-5.909,3.76
				c0,3.008,0.966,4.297,3.544,5.694c1.72,0.966,2.902,1.396,3.868,2.148c1.397,1.074,3.331,4.082,3.867,6.016
				c1.505-0.86,2.58-4.083,2.9-5.802C518.95,300.902,516.802,305.2,512.934,306.919z"/>
			<path fill="#FFFFFF" d="M542.048,297.679c-2.255,0-4.403,0.322-6.66,0c-2.577-0.322-5.157-0.967-7.627-1.826
				c-0.86-0.322-1.397-0.43-1.184,0.322c0.216,1.075,0.646,2.041,1.29,2.901c0.86,1.181,2.687,1.074,4.297,1.074
				c3.546-0.107,6.876-0.537,9.884-1.397C542.048,298.431,542.048,298.001,542.048,297.679z"/>
			<path fill="#192F8A" d="M415.387,330.661c2.148,3.975,3.76,9.884,3.651,14.073l-13.321-0.105
				c2.687-4.835,0.106-9.885-4.404-12.893c1.61,4.62,3.223,8.702,1.934,12.893l-13.537-0.109c1.612-2.577,2.471-5.37,1.504-8.594
				c-1.396-4.834-3.759-8.702-5.801-13.214c-4.835-0.108-9.561-1.181-14.074-3.223c0.431,3.008,1.29,6.983,2.256,9.777
				c1.827,4.834,4.513,11.065,5.91,15.253h-13.322c1.504-4.726-3.438-13.32-5.479-16.114l-0.752,1.504
				c-0.323,0.752-0.323,1.182,0.105,1.934c0.646,1.396,1.72,2.792,2.688,3.974l-8.272,6.34c-0.107-0.753-0.216-1.612-0.537-2.255
				c-1.396-3.223-3.33-6.339-4.943-9.241c-1.396-2.793-1.072-3.33,0.432-5.802c1.61-2.578,3.651-4.834,3.975-8.058
				c0.214-3.866,0.429-8.379-0.753-12.032c-1.073-2.148-1.288-2.578-3.653-2.578c-2.684,0.753-2.04,0.43-4.296,1.827
				c0.322-1.397,1.396-2.579,1.826-3.653c-3.114,0.215-5.372,2.579-8.596,4.834c-3.544,2.47-7.949,4.189-13.214,1.503
				c-3.007-1.718-4.082-4.297-4.403-7.735c0-2.148,0.106-4.083,0.966-6.016c0.86-1.934,2.042-3.438,3.116-5.479
				c0.967-2.793-0.431-6.124-3.223-7.413c1.719-0.215,2.362,0,3.974-0.322c0.752-2.901,0.646-3.33,0.752-3.546
				c2.794,3.008,4.297,6.016,3.009,10.099c-0.966,2.793-2.471,5.158-3.115,8.166c-0.322,1.396,0.321,4.512,2.149,4.619
				c1.934,0.214,2.686-2.148,3.437-3.76c0.646-1.611,1.397-2.687,2.364-4.083c1.826-2.255,4.083-3.867,6.231-5.908
				c1.073-1.29,2.686-3.331,3.759-4.62c1.29-1.611,2.363-2.041,4.297-2.901c0.753-0.215,1.398-0.322,2.149-0.429
				c3.332,0,6.446-0.323,9.883-0.645c4.729,0.429,6.34,2.041,9.885,4.083c2.579,1.181,4.835,1.181,8.702,1.396
				c6.983,0.323,12.033-0.537,14.825-0.322c2.579,0.43,4.084,0.859,6.447,2.256c2.255,1.719,4.082,3.975,5.907,6.338
				c3.01,3.976,6.125,6.231,7.629,11.496c0.536,2.471,0.966,4.619,1.288,7.091c0.323,2.9,0.323,6.23-1.504,9.023l-1.073-0.645
				c1.396-3.223,1.182-5.801,0.537-7.091c-2.471,3.009-3.331,6.554-2.794,8.811C411.196,322.818,413.773,327.008,415.387,330.661z"
				/>
			<path fill="#FFFFFF" d="M346.521,292.307c1.183-0.322,2.793-0.858,2.793-2.363c-0.107-1.934-4.941-1.182-5.587,0.752
				C342.869,292.737,344.803,292.737,346.521,292.307z"/>
			<path fill="#FFFFFF" d="M361.991,306.919c0.537-4.834,1.827-8.488,5.802-10.529c3.33-1.719,6.877-4.835,6.447-9.884
				c-3.332-0.322-5.158-1.504-7.735-4.082c-1.828-1.719-5.049-3.116-8.811-2.901c-1.611,0.108-3.33,0.43-4.62,1.29
				c2.472-0.537,4.299-0.537,6.877,0.429c2.04,0.752,3.545,2.042,5.049,3.653c1.719,1.826,3.438,3.975,5.908,3.76
				c0,3.008-0.967,4.297-3.545,5.694c-1.719,0.966-2.9,1.396-3.867,2.148c-1.396,1.074-3.33,4.082-3.868,6.016
				c-1.505-0.86-2.578-4.083-2.9-5.802C355.868,300.902,358.018,305.2,361.991,306.919z"/>
			<path fill="#FFFFFF" d="M332.771,297.679c2.255,0,4.403,0.322,6.66,0c2.578-0.322,5.157-0.967,7.628-1.826
				c0.86-0.322,1.397-0.43,1.183,0.322c-0.217,1.075-0.646,2.041-1.29,2.901c-0.86,1.181-2.686,1.074-4.297,1.074
				c-3.546-0.107-6.877-0.537-9.884-1.397C332.771,298.431,332.771,298.001,332.771,297.679z"/>
			<path fill="#192F8A" d="M566.222,286.506h0.428l0.431-0.106l0.429-0.108l0.432-0.107l0.43-0.215l0.429-0.214l0.322-0.215
				l0.322-0.322l0.322-0.322l0.322-0.322l0.216-0.43l0.215-0.43l0.106-0.429l0.108-0.43l0.105-0.537v-0.538v-0.538l-0.105-0.429
				l-0.108-0.431l-0.106-0.43l-0.215-0.43l-0.216-0.429l-0.322-0.323l-0.322-0.322l-0.322-0.323l-0.322-0.214l-0.429-0.215
				l-0.43-0.215l-0.432-0.107l-0.429-0.108l-0.431-0.108h-0.428h-0.431l-0.431,0.108l-0.429,0.108l-0.43,0.107l-0.429,0.215
				l-0.431,0.215l-0.322,0.214l-0.324,0.323l-0.32,0.322l-0.323,0.323l-0.214,0.429l-0.214,0.43l-0.108,0.43l-0.106,0.431
				l-0.108,0.429v0.538v0.538l0.108,0.537l0.106,0.43l0.108,0.429l0.214,0.43l0.214,0.43l0.323,0.322l0.32,0.322l0.324,0.322
				l0.322,0.215l0.431,0.214l0.429,0.215l0.43,0.107l0.429,0.108l0.431,0.106H566.222L566.222,286.506z M566.222,287.688
				c-3.115,0-5.802-2.471-5.802-5.801c0-3.33,2.687-5.802,5.802-5.802s5.802,2.472,5.802,5.802
				C572.023,285.217,569.337,287.688,566.222,287.688L566.222,287.688z M564.073,285.109v-6.445h2.899
				c1.503,0,1.826,1.289,1.826,1.826c0,0.751-0.323,1.289-0.858,1.503c0.43,0.215,0.752,0.431,0.752,1.612
				c0,0.967,0,1.182,0.215,1.289v0.214h-1.29c-0.108-0.322-0.108-0.645-0.108-1.289c0-0.859,0-1.182-0.967-1.182h-1.287v2.471
				H564.073L564.073,285.109z M565.255,281.458v-1.719h1.503c0.751,0,0.859,0.536,0.859,0.859c0,0.644-0.322,0.86-0.968,0.86
				H565.255L565.255,281.458z"/>
			<path fill="#192F8A" d="M584.699,351.502c-1.825,3.547-1.934,6.77-1.934,11.711v40.932h9.669c4.083,0,9.347-2.578,12.354-4.619
				l-5.694,14.934h-31.906c2.148-2.58,1.825-6.125,1.825-10.314v-39.428c0.107-4.617-0.215-9.238-1.934-13.215H584.699
				L584.699,351.502z M501.331,384.697c0.108-15.252,7.414-26.75,18.264-31.689c11.496-5.373,25.463-3.653,35.238,6.338
				c5.907,6.018,7.95,14.609,7.95,24.494c0,19.553-14.396,32.229-29.973,32.338C514.545,416.283,501.225,403.393,501.331,384.697
				L501.331,384.697z M518.092,393.51c4.297,9.883,11.709,16.436,22.668,10.42c5.371-3.76,8.057-11.602,7.733-18.586
				c-1.503-24.926-14.181-28.684-24.708-23.635C515.62,365.576,513.795,383.303,518.092,393.51L518.092,393.51z M496.927,366.76
				c-10.959-14.184-32.767-6.125-32.123,16.328c0.215,6.984,1.827,15.256,9.24,20.52c5.802,4.189,14.933,3.545,23.313-4.727
				l0.323,14.18c-9.134,3.867-24.388,5.48-35.453-2.578c-15.147-11.172-15.362-36.85-2.901-50.816
				c8.703-9.774,23.957-11.6,37.709-7.734L496.927,366.76L496.927,366.76z M430.318,404.68v-37.92
				c-0.106-5.158,0.646-10.744-1.826-14.504h17.512c-2.793,4.189-1.72,9.131-1.826,14.504l0.106,37.385
				c0,4.189,0.323,8.273,2.365,10.959h-18.049C430.104,412.525,430.749,409.195,430.318,404.68L430.318,404.68z M384.768,352.256
				c-0.86,2.256,0.967,6.016,1.505,8.271l11.387,34.809l10.744-36.313c0.751-2.363,1.288-4.619,0.43-6.768h15.9
				c-2.363,2.9-3.868,6.66-5.481,11.279l-16.973,51.568h-11.603l-16.223-47.379c-2.041-5.908-4.19-11.389-7.52-15.469H384.768
				L384.768,352.256z M328.902,404.037v-41.469c0-3.76-0.215-7.629-1.934-10.313h36.42l-4.834,13.643
				c-4.083-4.189-9.24-4.512-15.794-4.189v16.328h19.662l-6.125,14.396c-3.868-4.082-8.917-4.834-13.644-4.834v17.512
				c6.23,0.432,14.61,0,20.626-2.793l3.546-1.611l-5.802,14.504h-34.378C329.01,412.096,328.902,408.119,328.902,404.037
				L328.902,404.037z M323.316,352.039l-5.373,13.752c-3.867-3.33-8.809-4.943-15.899-4.189v16.545h19.661l-5.48,13.535
				c-3.866-3.223-8.81-3.76-14.181-3.545l-0.107,16.975c0,4.297,0.645,7.199,2.041,10.1h-17.618c2.148-3.01,1.719-6.77,1.719-11.281
				l-0.107-41.684c0.107-3.652-0.214-6.768-1.611-9.883L323.316,352.039z"/>
		</g>
	</g>
	<g>
		<rect x="641.746" y="258.574" fill="#8E9093" width="3.33" height="161.578"/>
	</g>
	<text transform="matrix(1 0 0 1 680.3721 299.1353)" fill="#192F8A" font-family="'ArialMT'" font-size="48.6342">THE</text>
	<text transform="matrix(1 0 0 1 680.3721 357.4707)" fill="#192F8A" font-family="'ArialMT'" font-size="48.6342">ULTIMATE</text>
	<text transform="matrix(1 0 0 1 680.3721 415.8076)" fill="#192F8A" font-family="'ArialMT'" font-size="48.6342">BOND</text>
</g>
</svg>
