<?xml version="1.0" encoding="utf-8"?>
<!-- Generator: Adobe Illustrator 16.0.0, SVG Export Plug-In . SVG Version: 6.00 Build 0)  -->
<!DOCTYPE svg PUBLIC "-//W3C//DTD SVG 1.1//EN" "http://www.w3.org/Graphics/SVG/1.1/DTD/svg11.dtd">
<svg version="1.1" id="Layer_1" xmlns="http://www.w3.org/2000/svg" xmlns:xlink="http://www.w3.org/1999/xlink" x="0px" y="0px"
	 width="703px" height="331px" viewBox="248.5 179 703 331" enable-background="new 248.5 179 703 331" xml:space="preserve">
<g>
	<g>
		<path fill="#FFF200" d="M860.456,275.799c4.168-1.947,8.76-2.221,13.151-3.272c3.435-0.821,7.143-0.977,9.999-3.378
			c0.534-0.448,1.835-1.145,1.113-2.309c-0.467-0.74-1.381-0.765-2.208-0.553c-3.583,0.908-7.354,1.076-10.694,2.973
			c-1.121,0.635-2.457,2.146-3.89,0.647c-1.07-1.114-0.795-2.352,0.436-3.366c0.349-0.286,0.125-1.194,0.032-1.095
			c-2.228,2.32-3.59-2.669-5.774-0.703c1.058,1.617,3.384,2.419,2.781,4.871c-0.685-0.174-1.362-0.348-2.047-0.516
			c-0.181-1.219-1.064-1.107-1.935-1.026c-2.507-2.906-6.551-1.089-10.477-3.291c6.5-2.47,10.295-10.029,18.166-4.766
			c-0.598-5.519-3.396-8.493-5.09-6.346c-2.73,3.466-4.834,1.052-7.57,0.548c1.2-1.5,3.788-1.07,3.497-2.862
			c-0.318-1.96-2.427-1.002-3.715-1.032c-10.552-0.305-21.023,0.33-31.456,2.214c-6.363,1.151-12.871,1.288-19.229-0.59
			c-1.026,2.414-2.606,2.955-5.4,3.136c-10.793,0.696-21.482,2.245-31.946,5.337c-4.317,1.275-9.003,1.313-13.519,1.916
			c-1.145-0.038-2.326-0.193-3.187,0.853c-1.635,0.23-3.271,0.46-4.908,0.69c-0.28-0.528-0.566-1.057-0.852-1.586
			c1.182-0.149,2.37-0.292,3.559-0.436c1.5-0.871,1.101-2.806,2.215-3.895c1.182-0.118,2.357-0.243,3.539-0.367
			c0.541-0.703,1.096-1.132,1.674-1.007c-0.578-0.125-1.139,0.305-1.674,1.007c0.914-0.043,1.83-0.081,2.75-0.125
			c0.399-0.038,0.797-0.074,1.202-0.111c0.553-0.486,1.063-0.678,1.549-0.684c0.191-0.007,0.385,0.024,0.571,0.068
			c-0.187-0.05-0.38-0.075-0.571-0.068c-0.486,0.012-1.002,0.198-1.549,0.684c1.423,0.933,2.779,2.357,4.572,0.627
			c9.897-3.962,20.119-5.58,30.814-5.033c3.626,0.187,7.327-1.213,10.998-1.885c6.254-2.532,12.841-3.335,19.505-3.739
			c1.983-0.118,4.13,0.069,5.051-2.681c-5.724-0.293-11.08,0.192-16.454,0.59c-7.604,0.566-15.193,1.332-22.845-0.249
			c-2.26-0.473-3.621-2.744-6.254-2.19c-11.154,2.352-22.751,0.634-33.906,4.006c-4.087,1.238-8.697,1.754-13.183,2.097
			c-4.996,0.386-10.116,0.864-14.999,1.947c-9.557,2.109-19.111,3.982-28.793,5.481c-6.332,0.983-12.828,1.537-18.963,3.211
			c-23.037,6.271-46.124,12.367-68.931,19.503c-23.237,7.273-46.076,15.628-69.051,23.616c-3.952,1.779-7.826,3.776-11.883,5.263
			c-1.985,0.734-4.193,2.862-6.545,0.056c-1.046-1.25-2.756,0.225-4.181,0.144c-0.044-0.784-0.094-1.568-0.138-2.352
			c3.08-2.892,7.447-3.315,10.819-5.655c3.143-0.386,5.531-3.192,8.928-2.768c0.336-0.293,0.666-0.585,1.002-0.884
			c-0.33,0.292-0.666,0.585-1.002,0.884c-0.02,0.019-0.037,0.031-0.05,0.049v-0.006v0.006c0.025,0,0.043,0,0.063,0
			c0.323,0.006,0.653,0.019,0.977,0.025l4.902,0.13l-4.902-0.13c-0.33-0.007-0.653-0.02-0.977-0.025
			c0.161,1.692,0.148,3.565,2.805,2.756c0.978-0.498,1.955-0.989,2.931-1.48c2.122-0.771,4.212-1.662,6.377-2.29
			c3.621-1.051,3.429-2.631,0.84-4.715c1.381,0.074,2.564-0.485,3.695-1.188c4.175-1.126,8.044-2.98,11.87-4.946
			c1.817,0.349,3.883-0.522,5.375,1.475c0.629,0.846,2.576,0.137,2.396-0.367c-1.792-5.027,2.513-2.961,4.248-4.094
			c1.849-1.2,4.89-1.169,5.308-3.982c-5.351,0.411-10.459,1.991-15.373,4.244c-5.214,1.611-10.838,2.333-14.781,6.737
			c-4.008-2.439-6.391,2.202-9.817,2.264c-1.512,0.094-2.501,1.07-3.497,2.053c-4.46-0.112-7.977,2.862-12.138,3.714
			c-1.486-0.118-3.105,0.217-4.181-1.251c0.647-0.074,1.301-0.149,1.947-0.217c1.256,0.255,1.86-0.492,2.302-1.494
			c4.2-2.04,8.394-4.075,12.592-6.115c1.997-0.604,3.994-1.207,5.986-1.811c2.917-0.852,5.865-1.623,8.733-2.613
			c0.827-0.287,1.699-1.126,1.332-2.277c-0.237-0.741-1.189-0.971-1.587-0.536c-2.631,2.875-7.154,1.276-9.725,4.188
			c-3.65-0.23-6.992,0.597-9.885,2.918c-0.647,0.112-1.344,0.093-1.93,0.348c-18.719,8.225-37.172,16.904-54.598,27.741
			c-14.465,8.99-27.529,19.89-41.602,29.395c-3.453,2.328-8.486,3.547-9.83,7.474c-1.754,5.131-5.089,8.298-9.008,11.327
			c-1.675,1.296-2.414,2.384-2.407,5.003c0.005,2.694,0.795,5.766-1.152,8.772c-2.917,4.497-1.313,6.937,4.013,7.278
			c3.808,0.243,7.97-0.565,9.078,4.884c0.154,0.766,1.935,1.201,3.017,1.817c-3.87,3.384-3.938,3.838-0.946,8.206
			c0.467,0.676,0.479,1.138-0.08,1.617c-2.551,2.228-0.778,3.638,0.921,5.077c1.139,0.957,3.16,1.491,1.63,3.675
			c-0.653,0.935,0.229,1.146,0.784,1.04c5.611-1.07,10.14,4.41,16.082,1.679c-0.734,3.591-3.54,2.832-5.406,4.256
			c1.804,0.188,3.229,0.336,6.277,0.648c-3.883,1.622-3.378,4.846-5.45,6.551c-1.113,0.921-1.761,1.996-1.126,3.396
			c0.671,1.482,2.115,1.282,3.415,1.282h11.329c0.056,0.416,0.118,0.84,0.175,1.263c-2.339,1.132-3.597,3.335-4.723,5.32
			c-1.113,1.971-5.58-0.168-4.188,3.099c0.928,2.17,3.323-1.924,5.395-0.623c1.032,1.699,2.7,1.829,4.43,1.767
			c-0.063,1.338-0.124,2.676-0.192,4.013c-1.443,4.802,1.405,5.033,4.889,4.598c0.599,0.081,1.195,0.168,1.792,0.248
			c2.801,1.319,5.451,0.094,8.139-0.478c0.491,0.049,0.977,0.1,1.467,0.154c2.21,0.112,4.667,1.208,6.185-1.511
			c3.758-1.762,8.486-1.675,11.019-5.768c5.275-0.057,9.786-3.478,15.167-3.354c1.729,0.037,3.316-1.281,3.341-3.484
			c5.698-1.58,10.409-6.363,17.059-5.068c0.965,0.187,3.272-1.681,0.853-2.721c-2.73-1.175-0.43-2.499-0.187-2.563
			c5.799-1.349,10.54-5.35,16.425-6.458c5.388-1.016,10.502-3.21,16.019-3.739c0.741-0.073,1.979-0.604,2.062-1.076
			c0.671-4.038,2.768-1.655,4.46-1.101c0.864,1.443,1.798,2.041,3.464,0.865c3.417-2.414,7.565-2.987,11.448-4.226l0,0
			c0.622-0.286,1.251-0.566,1.873-0.839c-0.306-1.519-0.617-3.036-0.922-4.556c-1.978,0.008-2.221,1.215-1.928,2.789
			c-3.44,1.548-2.558-1.376-3.012-2.913c7.335-3.882,15.436-5.387,23.192-7.882c7.802-2.514,15.616-5.835,23.449-8.671
			c7.894-2.856,15.994-5.158,24.126-7.38c6.793-1.854,13.986-2.589,20.425-5.749c1.779,0.791,4.777-2.377,5.281,0.81
			c0.268,1.691-3.253,1.778-5.169,2.339c-0.305,0.087-0.641,0.081-0.958,0.118c-4.897,1.456-9.874,2.682-14.657,4.442
			c-3.067,1.126-6.956,0.062-9.34,3.926c-0.473,0.771-5.561,0.23-8.503,0.658c-3.269,1.792-7.298,2.142-10.479,4.879
			c2.104,1.274,3.248-0.561,4.675-0.168c0.633-0.156,1.262-0.313,1.896-0.462c2.06,0,3.776,1.743,6.085,0.878
			c4.479-1.68,9.157-2.88,13.563-4.728c3.65-1.531,6.975-3.515,11.197-3.721c3.248-0.155,6.806-0.454,9.587-2.774
			c3.827,0.038,7.148-1.786,10.683-2.831c2.104-0.623,4.703-0.012,5.381-3.036c5.258-1.896,11.429,0.175,16.213-3.751
			c1.611-0.777,3.217-1.55,4.828-2.327c0.634-0.43,1.269-0.858,1.903-1.288c2.085,0.188,4.162,0.479,6.252,0.528
			c1.283,0.031,2.824-0.198,2.844-1.922c0.019-1.593-1.555-1.344-2.569-1.605c-2.358-0.609-4.468,0.112-6.439,1.382
			c-1.71-0.181-3.24,0.161-4.367,1.593c-0.827,0.143-1.655,0.293-2.476,0.441c-6.969-0.255-12.71,5.425-19.922,4.169
			c-0.235-0.044-0.652,0.957-0.988,1.469c-0.864-0.268-1.735-0.535-2.6-0.804c0.18-1.443,1.429-1.506,2.419-2.041
			c4.623-2.5,10.116-2.22,14.721-4.604c9.654-4.996,20.375-7.211,30.689-9.238c8.61-1.692,16.536-5.512,25.208-6.514
			c0.236,0.336,0.473,0.671,0.709,1.008c2.283,1.979,4.399-0.604,6.621-0.242c2.991-0.448,5.785-1.258,9.026-0.2
			c2.701,0.885,5.935,0.281,8.286-2.574c-3.883-0.454-8.534,3.11-10.332-2.999c0.919-0.063,1.835-0.13,2.756-0.199
			c2.862-0.89,6.357,0.248,8.579-2.683l0,0c3.563-0.521,7.434,0.013,10.276-2.985c5.294-0.087,9.7-2.55,14.267-4.585
			c-0.118-0.386-0.243-0.771-0.361-1.157c-3.658,0.945-7.316,1.884-10.975,2.825c-0.598,0.491-1.2,0.99-1.799,1.481
			c0.145,0.025,0.281,0.031,0.398,0.025c-0.117,0.006-0.254-0.007-0.398-0.025c-0.696,0.087-1.387,0.174-2.077,0.253
			c-0.025-0.596-0.043-1.188-0.063-1.784c7.751-4.156,16.169-6.75,24.605-8.648c7.852-1.766,15.591-3.508,23.958-6.961
			c-3.744-0.883-6.986,0.143-9.35-2.115c3.185-2.215,7.341-1.599,10.557-3.981c-6.695,0.069-13.295,0.865-19.777,2.668
			c-1.175,0.106-2.352,0.206-3.527,0.312c-1.251-0.486-2.396-0.361-3.378,0.628c-0.804,0.1-1.61,0.199-2.414,0.292
			c-0.585-0.685-1.263-1.991-1.73-1.923c-0.938,0.137-0.005,1.313-0.348,1.979c-6.855-0.822-13.53-0.398-19.696,3.104
			c-3.341,1.898-7.099,0.343-10.607,1.562c-6.65,2.302-13.674,3.148-20.611,4.243c-9.668,2.88-19.068,7.26-29.639,5.207
			c5.231-1.878,9.898-5.891,16.138-3.751c1.667,0.572,3.459,0.292,5.016-1.069c1.804-1.581,4.036-1.997,6.406-1.432
			c2.825-4.666,8.681-2.88,12.524-5.822c1.512-1.157,4.548-3.03,7.603-0.604c0.659,0.522,4.199-1.979,6.67-2.75
			c7.912-2.476,16.685-0.336,24.193-4.685c2.422-0.324,4.835-0.634,7.248-0.977c0.816-0.118,1.742-0.311,1.375-1.431
			c-0.248-0.759-0.759-1.213-1.847-0.934c-2.532,0.647-5.127,1.064-7.436-0.771c-0.509-4.473,3.994-2.769,5.643-4.584
			c2.613,0.249,2.894-1.624,3.192-3.491c0.572-0.063,1.146-0.131,1.717-0.199c1.102,0.075,2.203,0.143,3.298,0.217
			c2.097,1.114,4.766-0.081,6.794,1.941c0.796,0.796,2.209,0.317,2.588-1.617c0.653-3.297,3.509-4.188,5.965-1.948
			c0.815,0.747,1.769,0.828,1.854,0.262c0.517-3.21,2.407-1.711,4.1-1.487c2.806,0.373,5.6,0.715,6.216-3.385
			c0.237-1.561,1.935-2.053,3.516-2.083c-1.35-2.968-4.778,0.541-6.396-2.258c2.047-1.356,4.139-2.595,6.739-2.993
			c-3.056-0.385-6.023-1.008-9.121-0.566c3.253-1.119,6.152-3.284,9.83-2.893c4.105-0.006,7.633-2.034,11.384-3.292l-0.123,0.063
			c0.061,0.087,0.123,0.168,0.186,0.25c-0.019-0.1-0.038-0.2-0.063-0.293C861.01,278.823,862.255,277.896,860.456,275.799
			 M541.626,296.056c-0.181,0.063-0.361,0.124-0.541,0.193C541.265,296.18,541.445,296.119,541.626,296.056 M544.307,292.952
			c0.063,0.678-0.03,1.188-0.235,1.586C544.282,294.14,544.369,293.63,544.307,292.952z M695.565,360.608
			c-0.883,1.679-2.649,0.795-3.938,0.914c-6.01,0.541-11.261,4.057-17.439,4.156c-1.423,0.025-4.061,1.562-3.707,4.379
			c-0.497,0.169-1.001,0.33-1.499,0.498l0,0c-5.917-2.351-11.677,1.362-17.607,0.821c3.305-2.8,7.225-3.764,11.013-4.709
			c6.546-1.638,12.504-5.04,19.448-5.662c2.812-0.248,5.582-2.339,8.754-2.606c1.592-0.131,3.196-1.089,4.527,0.441
			C695.479,359.259,695.785,360.192,695.565,360.608 M711.351,272.502c-4.088,0.853-8.355,0.853-12.636,0.946
			c6.581,0.006,10.171-7.092,16.828-6.849c1.201-1.121,2.439-1.687,3.733-1.525c-1.294-0.156-2.532,0.404-3.733,1.525
			c2.066,0.249,4.119,0.286,6.116-0.43C720.24,271.526,715.394,271.662,711.351,272.502 M789.721,336.128
			c-0.075,0.217-0.162,0.417-0.275,0.584C789.559,336.539,789.646,336.34,789.721,336.128 M789.267,336.943
			c-0.139,0.143-0.307,0.249-0.505,0.305C788.96,337.191,789.128,337.08,789.267,336.943 M728.061,265.808L728.061,265.808
			c-0.517,0.846-1.046,1.705-1.984,3.241C727.009,267.519,727.531,266.667,728.061,265.808 M761.382,256.818
			c0.186,0.063,0.368,0.149,0.547,0.243C761.75,256.961,761.567,256.881,761.382,256.818 M732.055,261.876
			c0.597-0.087,1.201-0.137,1.817-0.149c0.92-0.019,1.865,0.063,2.843,0.249c0.136-0.896,0.646-1.585,1.249-2.009
			c-0.603,0.424-1.113,1.113-1.249,2.009c-0.978-0.186-1.923-0.267-2.843-0.249C733.256,261.739,732.651,261.79,732.055,261.876
			c-0.891,0.138-1.767,0.349-2.631,0.635C730.288,262.23,731.164,262.014,732.055,261.876"/>
		<path fill="#FFF200" d="M836.784,323.025c-6.078,2.302-12.697,1.649-18.633,6.502C826.04,329.042,834.676,326.03,836.784,323.025"
			/>
		<path fill="#FFF200" d="M863.324,239.741c-0.087-0.797-0.871-1.014-1.455-0.74c-2.974,1.381-6.621,0.69-9.19,3.254
			c3.019-1.17,6.129-0.542,9.108-0.989C862.565,241.141,863.436,240.768,863.324,239.741"/>
		<path fill="#FFF200" d="M809.448,242.098c-3.436-0.914-6.863-1.094-10.26,0.082C802.599,243.716,806.021,243.412,809.448,242.098"
			/>
		<path fill="#FFF200" d="M906.651,271.134c-0.17-0.392-0.842-0.977-1.022-0.89c-2.326,1.077-5.556-0.417-7.223,2.501
			c-0.218,0.031-0.329,0.155-0.348,0.373c-5.021,0.13-9.531,3.57-14.776,2.258c-1.68-0.417-2.986,0.591-3.795,1.698
			c-1.935,2.663-4.591,2.737-7.404,2.675c-2.767-0.069-5.493-0.012-8.217,0.766c-1.557,0.447-3.379,0.896-4.666-0.71
			c0.453,2.333,0.944,4.66,1.337,7.006c0.188,1.119,0.759,1.785,1.816,1.984c1.524,0.287,1.146-0.909,1.494-1.773
			c0.908-2.227,4.013-3.371,4.871-2.053c4.386,6.713,7.49-0.971,10.956-1.307c3.073-0.298,6.768-4.044,10.626-5.68
			c2.892-1.226,6.469-1.076,8.646-3.895c0.901-0.111,1.799-0.217,2.694-0.33c1.376-0.404,2.762-0.777,4.124-1.231
			C906.382,272.315,906.973,271.887,906.651,271.134"/>
		<path fill="#FFF200" d="M591.876,274.381c5.916-0.397,5.916-0.397,9.114-3.091C597.046,270.169,594.955,272.384,591.876,274.381"
			/>
		<path fill="#FFF200" d="M875.618,259.04c2.196-0.106,2.887-1.649,3.086-4.05c-2.241,0.268-4.131,0.342-4.829,2.221
			C873.54,258.112,874.529,259.089,875.618,259.04"/>
		<path fill="#FFF200" d="M586.525,406.261c4.802-1.344,9.606-2.695,14.415-4.038c1.654-0.312,2.145-1.48,2.177-2.98
			c-0.1-0.571-0.206-1.144-0.311-1.716c-6.675,0.832-13.027,2.867-19.286,5.238c-1.25,0.273-2.501,0.54-3.751,0.808
			c0.305,1.518,0.615,3.037,0.92,4.555C582.941,408.47,584.435,406.447,586.525,406.261"/>
		<path fill="#FFF200" d="M848.331,288.858c-1.351,0.659-0.056,1.158,0.342,1.68c0.516-0.143,1.026-0.286,1.543-0.423
			C850.265,288.665,849.245,288.404,848.331,288.858"/>
		<path fill="#FFF200" d="M520.001,306.203c4.548-1.331,7.944-2.034,10.097-5.295C526.919,302.079,523.205,302.278,520.001,306.203"
			/>
	</g>
	<g>
		<path fill="#0095DA" d="M352.405,302.483l-1.103-4.828c0.15-0.908-0.385-1.817-1.287-2.109c-1.605-0.517-2.731-1.226-3.049-1.904
			l-0.225-0.945c-0.123-0.529-0.473-0.983-0.957-1.238c-0.486-0.262-1.053-0.292-1.562-0.099l-49.554,18.825
			c-0.628,0.243-1.082,0.797-1.194,1.463c-0.117,0.708-0.174,1.443-0.174,2.171c0,0.59,0.057,1.175,0.131,1.742v0.012
			c-0.112,0.684-0.175,1.381-0.175,2.065c0,0.585,0.038,1.163,0.112,1.729c0.124,0.951,0.939,1.654,1.879,1.654l0.112-0.006
			l57.87-5.188c0.548-0.051,1.04-0.331,1.362-0.766c0.323-0.441,0.436-1.007,0.317-1.542L352.405,302.483z M347.651,298.706
			l0.629,2.769l-50.512,11.585l45.945-17.458C344.441,296.884,345.76,297.922,347.651,298.706 M297.532,317.01l51.594-11.839
			l1.611,7.074L297.532,317.01z"/>
		<path fill="#0095DA" d="M486.176,281.274c0.006-0.019,0.013-0.031,0.024-0.05c0.349-0.666,0.641-1.362,0.871-2.097
			c0.006-0.019,0.013-0.037,0.019-0.056c0.229-0.734,0.398-1.493,0.498-2.277c0.435-3.496-0.517-6.955-2.682-9.742
			c-0.815-1.039-1.761-1.941-2.806-2.682c-1.749-1.232-3.789-2.028-5.973-2.302c-0.547-0.068-1.089-0.093-1.623-0.093
			c-0.175-0.006-0.349,0.007-0.522,0.012c-0.374,0.013-0.747,0.044-1.114,0.088c-0.181,0.019-0.354,0.043-0.529,0.068
			c-0.517,0.081-1.015,0.193-1.511,0.336c-0.057,0.019-0.113,0.038-0.162,0.056c-0.474,0.144-0.928,0.318-1.376,0.504
			c-0.056,0.025-0.111,0.037-0.167,0.062c-1.668,0.069-3.285,0.442-4.821,1.126c-1.271,0.056-2.514,0.286-3.715,0.697
			c-1.829-0.057-3.59,0.249-5.107,0.852l-11.646,3.559c-1.587-5.867-6.931-10.235-13.444-10.309c-3.036,0-5.854,1.001-8.156,2.676
			l-39.505,15.012c-0.89,0.335-1.388,1.275-1.176,2.202l1.791,7.695c0.168,0.946-0.722,2.041-1.27,2.613
			c-0.44,0.46-0.621,1.12-0.479,1.742l1.058,4.566l3.627,15.684c0.2,0.865,0.971,1.468,1.848,1.468c0,0,0.112-0.005,0.174-0.005
			l43.357-3.882c0.46,0.118,0.933,0.217,1.418,0.292c0.69,0.099,1.388,0.155,2.084,0.155c6.831,0,12.754-5.102,13.768-11.864
			c0.213-1.412,0.205-2.806,0-4.15l12.033-1.947c1.182-0.069,2.346-0.299,3.464-0.685c0.149,0.006,0.299,0.006,0.442,0.006
			c1.836,0,3.677-0.398,5.351-1.145c1.667-0.063,3.285-0.448,4.815-1.126c0.031,0,0.056-0.006,0.056-0.006
			c0.777-0.037,1.513-0.137,2.227-0.292c0.045-0.012,0.088-0.019,0.125-0.031c0.723-0.167,1.425-0.392,2.104-0.672
			c0.024-0.012,0.049-0.024,0.068-0.031c0.69-0.292,1.349-0.641,1.972-1.04c0.013-0.005,0.019-0.012,0.031-0.018
			c0.628-0.411,1.226-0.872,1.779-1.375l0.013-0.006c0.553-0.51,1.063-1.07,1.53-1.667c0,0,0.006-0.013,0.013-0.019
			C485.416,282.581,485.827,281.947,486.176,281.274 M483.817,276.329c-0.074,0.609-0.218,1.2-0.397,1.76
			c-0.063,0.193-0.162,0.373-0.236,0.56c-0.145,0.355-0.287,0.715-0.479,1.051c-0.118,0.212-0.262,0.404-0.393,0.603
			c-0.187,0.286-0.373,0.566-0.591,0.828c-0.161,0.199-0.348,0.373-0.522,0.553c-0.224,0.236-0.454,0.461-0.702,0.667
			c-0.199,0.167-0.412,0.316-0.624,0.466c-0.26,0.181-0.527,0.361-0.808,0.516c-0.23,0.131-0.46,0.243-0.703,0.355
			c-0.292,0.137-0.584,0.249-0.896,0.355c-0.254,0.087-0.51,0.161-0.771,0.229c-0.312,0.075-0.628,0.125-0.946,0.168
			c-0.279,0.037-0.56,0.075-0.84,0.087c-0.522,0.025-1.044,0.031-1.586-0.037c-2.494-0.311-4.717-1.573-6.26-3.552
			c-1.542-1.984-2.221-4.449-1.908-6.937c0.422-3.403,2.655-6.184,5.642-7.465c0.181-0.076,0.354-0.15,0.542-0.218
			c0.372-0.13,0.752-0.243,1.145-0.33c0.112-0.025,0.218-0.056,0.323-0.075c0.517-0.094,1.046-0.143,1.587-0.149
			c0.41,0,0.833,0.013,1.257,0.069c2.488,0.311,4.715,1.574,6.252,3.552C483.456,271.37,484.135,273.833,483.817,276.329
			 M453.29,270.417l1.99-0.609c-1.375,1.73-2.296,3.814-2.582,6.097c-0.609,4.921,1.817,9.506,5.799,11.939l-1.226,0.199
			c-1.872-0.542-3.56-1.581-4.884-3.08c-1.83-2.071-2.738-4.734-2.563-7.49C450.005,274.655,451.324,272.172,453.29,270.417
			 M461.508,282.649c-1.698-2.184-2.445-4.89-2.103-7.64c0.348-2.787,1.804-5.213,3.895-6.849h0.037
			c-1.001,1.585-1.687,3.402-1.935,5.369c-0.436,3.502,0.516,6.955,2.681,9.736c0.978,1.257,2.153,2.29,3.466,3.104
			C465.154,285.866,463.026,284.596,461.508,282.649 M460.07,268.719L460.07,268.719c-1.35,1.705-2.264,3.777-2.551,6.053
			c-0.405,3.248,0.479,6.458,2.488,9.034c0.982,1.269,2.185,2.302,3.527,3.079l-0.068,0.025c-0.473,0.181-0.958,0.317-1.449,0.417
			c-4.815-1.376-8.074-6.073-7.434-11.199c0.379-3.042,2.077-5.679,4.572-7.329C459.461,268.775,459.76,268.719,460.07,268.719
			 M430.526,262.822L430.526,262.822c5.592,0.074,10.083,4.679,10.016,10.271c-0.007,0.628-0.094,1.238-0.212,1.835
			c-0.018,0.111-0.043,0.224-0.068,0.33c-0.286,1.213-0.783,2.345-1.462,3.354c-0.03,0.043-0.063,0.094-0.094,0.137
			c-0.354,0.51-0.752,0.989-1.188,1.425l-0.005,0.006c-0.393,0.386-0.828,0.729-1.282,1.045c-0.143,0.1-0.292,0.205-0.441,0.298
			c-0.404,0.255-0.821,0.485-1.257,0.678c-0.144,0.062-0.286,0.131-0.436,0.187c-0.448,0.181-0.915,0.318-1.388,0.429
			c-0.205,0.05-0.416,0.087-0.628,0.125c-0.479,0.081-0.97,0.138-1.468,0.149c-0.111,0.006-0.225,0.025-0.337,0.025l0,0h-0.006
			c-0.199-0.006-0.38-0.056-0.572-0.068c-0.168-0.043-0.33-0.062-0.504-0.056c-0.168-0.019-0.343-0.031-0.51-0.056
			c-0.299-0.056-0.592-0.112-0.877-0.193c-0.355-0.094-0.703-0.205-1.046-0.336c-0.243-0.093-0.485-0.193-0.721-0.305
			c-0.368-0.174-0.717-0.373-1.053-0.591c-0.186-0.118-0.372-0.236-0.554-0.361c-0.348-0.254-0.678-0.541-0.988-0.839
			c-0.138-0.137-0.287-0.262-0.417-0.398c-0.312-0.33-0.585-0.685-0.847-1.052c-0.111-0.149-0.229-0.293-0.329-0.448
			c-0.243-0.379-0.442-0.79-0.635-1.201c-0.081-0.167-0.174-0.336-0.249-0.516c-0.175-0.429-0.286-0.883-0.398-1.344
			c-0.043-0.18-0.111-0.348-0.143-0.528c-0.118-0.641-0.187-1.301-0.175-1.979c0.007-0.646,0.094-1.269,0.219-1.885
			c0.012-0.063,0.018-0.137,0.037-0.205c0.137-0.598,0.323-1.17,0.56-1.724c0.025-0.056,0.044-0.105,0.068-0.162
			C422.729,265.317,426.32,262.822,430.526,262.822 M415.047,302.956c-1.53-2.072-2.164-4.591-1.786-7.092
			c0.38-2.514,1.648-4.697,3.472-6.203l1.425-0.33c-0.883,1.456-1.486,3.08-1.748,4.81c-0.685,4.566,1.12,8.984,4.479,11.82
			l-1.811,0.163C417.498,305.438,416.098,304.38,415.047,302.956 M411.476,269.858l5.108-1.941
			c-0.778,1.698-1.214,3.559-1.208,5.506c0.013,4.741,2.502,8.903,6.291,11.224l-5.712,1.313c-1.66-0.466-3.19-1.325-4.424-2.588
			c-1.798-1.848-2.773-4.261-2.736-6.8C408.837,273.97,409.827,271.606,411.476,269.858 M418.282,294.426
			c0.323-2.159,1.274-4.137,2.712-5.736l1.164-0.268c-1.002,1.58-1.693,3.365-1.953,5.294c-0.623,4.647,1.226,9.07,4.604,11.889
			l-1.002,0.087C419.856,303.478,417.592,299.036,418.282,294.426 M387.063,285.854l-1.438-6.177l22.683-8.618
			c-0.869,1.643-1.381,3.503-1.411,5.475c-0.037,3.049,1.119,5.941,3.278,8.15c0.777,0.796,1.648,1.455,2.582,1.997l-26.833,6.159
			l-0.411-1.778C387.169,288.982,387.3,287.153,387.063,285.854 M386.783,296.535l15.964-3.664l10.737-2.463
			c-1.063,1.492-1.803,3.247-2.096,5.169c-0.454,3.005,0.305,6.029,2.135,8.511c0.659,0.89,1.43,1.667,2.289,2.327l-26.192,2.345
			L386.783,296.535z M445.177,296.821c-0.74,4.928-5.052,8.635-10.022,8.635c-0.504,0-1.014-0.037-1.518-0.112
			c-0.536-0.081-1.046-0.236-1.543-0.392c-0.361-0.118-0.703-0.255-1.046-0.404c-0.249-0.112-0.497-0.23-0.74-0.355
			c-0.312-0.174-0.609-0.354-0.896-0.553c-0.236-0.162-0.46-0.336-0.679-0.516c-0.261-0.212-0.51-0.436-0.747-0.672
			c-0.204-0.206-0.397-0.43-0.59-0.653c-0.211-0.249-0.411-0.504-0.599-0.765c-0.173-0.255-0.322-0.522-0.472-0.784
			c-0.155-0.274-0.312-0.547-0.436-0.833c-0.137-0.299-0.23-0.61-0.336-0.921c-0.093-0.28-0.198-0.561-0.268-0.846
			c-0.087-0.373-0.13-0.759-0.174-1.145c-0.032-0.243-0.081-0.486-0.094-0.734c-0.03-0.647-0.005-1.293,0.094-1.959
			c0.1-0.665,0.279-1.319,0.503-1.942c0.02-0.055,0.032-0.111,0.057-0.174c0.224-0.585,0.511-1.138,0.841-1.673
			c0.048-0.081,0.093-0.161,0.149-0.243c0.329-0.498,0.709-0.97,1.119-1.406c0.081-0.088,0.168-0.174,0.254-0.255
			c0.417-0.417,0.878-0.79,1.37-1.133c0.055-0.038,0.118-0.074,0.174-0.111c0.143,0.006,0.323,0.012,0.491,0.018
			c0,0,0.1,0.013,0.155,0.013h0.182l0,0l0,0c0.534,0,1.057-0.037,1.573-0.093c0.117-0.014,0.236-0.038,0.354-0.057
			c0.417-0.055,0.821-0.13,1.227-0.224c0.117-0.031,0.236-0.063,0.347-0.093c0.418-0.105,0.822-0.236,1.221-0.379
			c0.099-0.037,0.198-0.069,0.292-0.106c0.454-0.18,0.89-0.373,1.319-0.59c0.03-0.012,0.056-0.025,0.086-0.037
			c0.069,0.012,0.131,0.031,0.193,0.044c0.536,0.099,1.052,0.242,1.549,0.422c0.137,0.05,0.268,0.094,0.405,0.149
			c1.119,0.455,2.127,1.095,2.992,1.885c0.1,0.093,0.192,0.187,0.286,0.28c0.317,0.317,0.615,0.659,0.89,1.013
			c0.105,0.137,0.211,0.262,0.312,0.398c0.305,0.436,0.578,0.896,0.814,1.382c0.1,0.211,0.174,0.435,0.262,0.653
			C445.177,293.169,445.457,294.967,445.177,296.821 M446.62,287.446c-0.056-0.082-0.112-0.168-0.169-0.249
			c-0.415-0.591-0.889-1.139-1.398-1.655c-0.118-0.119-0.237-0.243-0.36-0.361c-0.499-0.473-1.034-0.896-1.594-1.288
			c-0.155-0.106-0.304-0.218-0.46-0.317c-0.585-0.373-1.201-0.703-1.848-0.99c-0.08-0.037-0.149-0.086-0.229-0.124
			c0.062-0.063,0.11-0.137,0.173-0.199c0.193-0.211,0.374-0.429,0.554-0.653c0.088-0.106,0.162-0.212,0.243-0.317
			c0.187-0.25,0.367-0.498,0.535-0.753c0.057-0.093,0.111-0.187,0.174-0.28c0.175-0.273,0.337-0.56,0.497-0.858
			c0.038-0.075,0.076-0.156,0.119-0.237c0.155-0.305,0.299-0.616,0.436-0.939c0.031-0.082,0.056-0.162,0.094-0.243
			c0.124-0.317,0.243-0.641,0.348-0.965c0.031-0.105,0.056-0.217,0.087-0.33c0.088-0.305,0.168-0.609,0.23-0.921
			c0.044-0.187,0.063-0.379,0.094-0.572c0.037-0.237,0.087-0.473,0.111-0.716c0.05-0.435,0.075-0.884,0.081-1.331l5.568-1.705
			c-1.12,1.71-1.83,3.726-1.966,5.897c-0.206,3.267,0.87,6.415,3.036,8.873c0.833,0.945,1.798,1.741,2.85,2.382l-5.998,0.971v-0.006
			C447.485,288.82,447.08,288.112,446.62,287.446"/>
		<path fill="#0095DA" d="M379.138,331.269c-0.479-0.056-0.959-0.106-1.456-0.106c-6.01,0-10.899,4.087-10.899,9.108
			c0,2.513,1.188,4.851,3.347,6.581c2.041,1.631,4.722,2.532,7.553,2.532c0.889,0,1.792-0.111,2.682-0.298
			c0.33,0.036,0.646,0.1,0.977,0.1c5.026,0,9.107-4.088,9.107-9.114c0-5.021-4.088-9.108-9.107-9.108
			C380.581,330.964,379.853,331.088,379.138,331.269 M387.076,340.073c0,3.153-2.57,5.729-5.73,5.729s-5.73-2.576-5.73-5.729
			c0-3.161,2.576-5.731,5.73-5.731C384.501,334.342,387.076,336.918,387.076,340.073 M399.462,340.451
			c-0.012-0.522-0.448-0.933-0.976-0.921c-0.523,0.012-0.934,0.449-0.922,0.977c0.013,0.523,0.448,0.933,0.971,0.921
			C399.07,341.417,399.481,340.975,399.462,340.451 M425.99,396.704c-0.565-1.28-1.338-2.4-2.302-3.347
			c-0.964-0.945-2.084-1.686-3.372-2.228c-1.288-0.535-2.656-0.81-4.112-0.81c-1.455,0-2.837,0.269-4.124,0.81
			c-1.295,0.542-2.428,1.282-3.403,2.228c-0.978,0.946-1.749,2.066-2.309,3.347c-0.566,1.288-0.853,2.676-0.853,4.169
			c0,1.535,0.286,2.948,0.853,4.243c0.565,1.292,1.339,2.42,2.309,3.371c0.976,0.953,2.108,1.699,3.403,2.221
			c1.294,0.529,2.669,0.798,4.124,0.798c1.456,0,2.824-0.269,4.112-0.798c1.288-0.521,2.413-1.268,3.372-2.221
			c0.964-0.951,1.736-2.079,2.302-3.371c0.566-1.295,0.847-2.708,0.847-4.243C426.837,399.386,426.557,397.992,425.99,396.704
			 M423.029,403.958c-0.38,0.94-0.902,1.755-1.568,2.45c-0.666,0.686-1.45,1.233-2.352,1.625c-0.901,0.393-1.872,0.592-2.918,0.592
			c-1.063,0-2.047-0.199-2.955-0.592c-0.908-0.392-1.698-0.939-2.363-1.625c-0.666-0.695-1.188-1.51-1.568-2.45
			c-0.379-0.938-0.566-1.966-0.566-3.073c0-1.082,0.192-2.078,0.566-3.012c0.38-0.932,0.896-1.741,1.568-2.426
			c0.665-0.684,1.455-1.225,2.363-1.611c0.908-0.392,1.892-0.591,2.955-0.591c1.046,0,2.017,0.199,2.918,0.591
			s1.686,0.928,2.352,1.611c0.672,0.685,1.188,1.494,1.568,2.426c0.379,0.934,0.565,1.93,0.565,3.012
			C423.602,401.992,423.408,403.02,423.029,403.958 M395.382,322.316c-0.523,0.013-0.939,0.449-0.921,0.977
			c0.013,0.523,0.454,0.934,0.977,0.921c0.522-0.012,0.933-0.454,0.921-0.977C396.339,322.708,395.897,322.298,395.382,322.316
			 M377.999,340.073c0,1.847,1.499,3.346,3.348,3.346c1.848,0,3.347-1.499,3.347-3.346c0-1.843-1.499-3.347-3.347-3.347
			C379.498,336.726,377.999,338.23,377.999,340.073 M412.042,420.003c-0.125-0.144-0.262-0.268-0.417-0.366l-10.221-8.935
			c-0.542-0.459-1.14-0.864-1.768-1.226l-1.063-43.523c0.087-0.162,0.174-0.325,0.248-0.486l0.2-0.453l-0.604-5.612v-0.074
			l-0.007,0.005l-0.703-6.526l0.144-0.16l5.935-1.096c1.021-0.187,1.698-1.163,1.524-2.184l-3.011-17.667l21.196-22.168
			l-5.742,0.518l-16.251,16.996l-0.273-1.604l-1.355-7.975l6.463-6.396l-5.929,0.528l-3.142,3.105l-6.028,1.095l-5.73-24.773
			c1.313-1.667,1.866-3.422,1.556-5.169l-2.619-11.261c-0.063-0.274-0.149-0.622-0.269-0.996c0-0.136,0.02-0.279-0.012-0.417
			c-0.311-1.456-0.939-2.793-1.823-4.013l7.566,4.125c0.273,0.162,0.559,0.287,0.87,0.367l19.361-7.359l-10.085-5.879
			c-0.392-0.908-0.989-1.431-1.438-1.699c-0.019-0.019-0.161-0.093-0.187-0.105l-10.271-5.599c-0.125-0.1-0.249-0.187-0.355-0.25
			c-0.54-0.323-1.145-0.484-1.803-0.484c-2.246,0-4.934,2.065-6.844,5.257c-1.046,1.754-1.717,3.621-1.892,5.263
			c-0.093,0.896-0.024,1.612,0.125,2.221c-3.111-1.642-7.074-2.582-11.522-2.582c-2.158,0-4.373,0.225-6.57,0.666
			c-11.764,2.352-20.194,10.377-19.186,18.266c0.037,0.287,0.144,0.547,0.286,0.778c0.049,0.236,0.1,0.473,0.148,0.703l2.763,11.783
			l0.068,0.231c0.673,1.798,2.303,3.01,4.281,3.837l5.593,24.55l-5.954,1.219c-0.498,0.1-0.902,0.393-1.176,0.778
			c-0.025,0.019-0.057,0.025-0.081,0.05c-4.205,3.347-7.329,6.463-9.836,9.817c-1.052,1.4-1.929,2.756-2.688,4.149
			c-3.048,5.556-4.379,12.068-3.85,18.838c0.136,1.765,0.404,3.547,0.802,5.288c1.594,7.03,4.43,12.785,8.425,17.115
			c2.463,2.662,5.442,4.982,8.635,6.738c0.217,0.217,0.441,0.423,0.709,0.589c0.349,0.211,0.722,0.369,0.945,0.412l6.942,2.501
			l-3.751,15.696c-0.323,0.225-0.671,0.423-0.971,0.679l-10.507,9.176c-0.02,0.019-0.026,0.038-0.044,0.056
			c-2.178,1.762-3.534,4.205-3.534,6.906c0,5.331,5.282,9.673,11.771,9.673c3.141,0,5.991-1.019,8.1-2.674
			c0.044-0.031,0.1-0.045,0.144-0.089l0.242-0.211l0.013-0.011l0.013-0.014l0.006-0.005l0.006-0.009l0.007-0.005l0,0l0.067-0.056
			c0.014-0.013,0.02-0.02,0.031-0.025l0.236-0.212h0.007l9.93-8.684c1.879-1.42,3.116-3.316,3.576-5.357l0,0l7.43-22.559
			l2.283,24.96h0.012c0.168,2.526,1.512,4.909,3.721,6.568l9.96,8.705c0.037,0.031,0.081,0.043,0.124,0.075
			c2.159,1.935,5.245,3.16,8.679,3.16c6.489,0,11.771-4.343,11.771-9.68C415.457,424.158,414.15,421.751,412.042,420.003
			 M396.239,318.751l1.033,6.06l3.981,23.361l-2.948,0.541l-5.009-29.432L396.239,318.751z M389.738,320.935l5.021,29.5
			l-0.423,0.491c-2.612,2.875-8.685,5.519-15.46,6.727c-5.866,1.052-12.001,0.994-15.945-0.019
			c-0.087-0.024-0.187-0.038-0.268-0.063l-0.068-0.019c-0.541-0.156-1.032-0.317-1.475-0.511l-0.814-0.564l-2.862-19.891
			l-1.355-9.443c0.161,0.042,0.348,0.074,0.516,0.119c0.28,0.067,0.561,0.129,0.853,0.191c0.354,0.076,0.722,0.138,1.096,0.2
			c0.392,0.063,0.777,0.125,1.188,0.173c0.187,0.025,0.38,0.039,0.578,0.057c1.332,0.137,2.726,0.23,4.225,0.23
			c0.243,0,0.504-0.031,0.746-0.037c1.207-0.02,2.433-0.069,3.684-0.175c0.192-0.013,0.386-0.044,0.578-0.062
			c1.432-0.137,2.882-0.324,4.312-0.578c0.884-0.162,1.754-0.342,2.607-0.542c0.305-0.068,0.591-0.149,0.89-0.225
			c0.547-0.137,1.095-0.281,1.624-0.436c0.329-0.093,0.652-0.199,0.977-0.304c0.479-0.15,0.945-0.299,1.406-0.46
			c0.323-0.113,0.641-0.23,0.951-0.355c0.441-0.168,0.871-0.337,1.294-0.523c0.299-0.124,0.592-0.248,0.877-0.378
			c0.43-0.194,0.834-0.398,1.238-0.604c0.249-0.13,0.51-0.249,0.754-0.386c0.453-0.248,0.883-0.504,1.306-0.765
			c0.155-0.1,0.33-0.194,0.479-0.292C388.774,321.657,389.271,321.302,389.738,320.935 M361.637,384.318
			c-0.292,0.497-0.609,0.926-0.927,1.306c-0.175,0.206-0.349,0.367-0.522,0.541c-0.144,0.138-0.286,0.299-0.423,0.41
			c-0.206,0.168-0.393,0.293-0.585,0.412c-0.094,0.056-0.193,0.136-0.28,0.181c-0.224,0.118-0.423,0.186-0.609,0.212
			c-0.031,0.005-0.081,0.029-0.105,0.029l-0.101,0.013c-0.018-0.019-0.03-0.063-0.049-0.086c-0.013-0.033-0.031-0.05-0.044-0.081
			c-0.019-0.044-0.031-0.113-0.043-0.175c-0.014-0.05-0.02-0.082-0.031-0.137c-0.013-0.075-0.013-0.176-0.02-0.262
			c-0.006-0.063-0.012-0.112-0.012-0.174c0-0.106,0.012-0.232,0.019-0.355c0.006-0.068,0.006-0.124,0.013-0.198
			c0.018-0.143,0.049-0.305,0.08-0.461c0.014-0.068,0.019-0.13,0.038-0.198c0.043-0.187,0.105-0.387,0.167-0.592
			c0.014-0.056,0.025-0.106,0.044-0.162c0.075-0.217,0.174-0.453,0.273-0.689c0.026-0.051,0.038-0.093,0.063-0.149
			c0.137-0.286,0.292-0.593,0.479-0.901c0.901-1.532,1.966-2.453,2.762-2.857l0.056-0.031c0.044-0.024,0.063-0.024,0.101-0.042
			c0.229-0.088,0.454-0.156,0.628-0.145h0.019C362.899,380.075,363.062,381.892,361.637,384.318 M397.478,270.07
			c0.367-0.473,0.716-0.971,1.045-1.512c0.33-0.554,0.61-1.12,0.859-1.687c0.063-0.136,0.111-0.273,0.167-0.404
			c0.212-0.51,0.387-1.014,0.523-1.518c0.013-0.032,0.024-0.068,0.037-0.105l5.475,3.185l-9.475,3.603l-0.013-0.007
			c0.398-0.379,0.784-0.815,1.163-1.282C397.335,270.256,397.409,270.169,397.478,270.07 M386.08,264.887
			c0.031-0.031,0.057-0.056,0.081-0.087c0.237-0.28,0.467-0.572,0.691-0.877c0.037-0.05,0.08-0.099,0.118-0.149
			c0.229-0.323,0.447-0.653,0.659-1.001c0.025-0.037,0.049-0.075,0.074-0.112c0.019-0.031,0.031-0.068,0.05-0.099
			c0.212-0.361,0.41-0.734,0.591-1.114c0.087-0.174,0.156-0.354,0.236-0.535c0.1-0.23,0.205-0.466,0.293-0.696
			c0.081-0.212,0.144-0.417,0.211-0.616c0.069-0.206,0.131-0.411,0.187-0.617c0.063-0.218,0.112-0.435,0.156-0.646
			c0.019-0.087,0.05-0.174,0.062-0.262l7.08,3.851l0.031,0.168c0.118,0.622-0.043,1.761-0.609,3.091
			c-0.012,0.032-0.025,0.056-0.031,0.082c-0.187,0.435-0.411,0.889-0.69,1.35c-0.268,0.448-0.548,0.846-0.834,1.207
			c-0.031,0.037-0.056,0.075-0.087,0.112c-0.89,1.107-1.792,1.786-2.414,1.991l-0.18,0.069l-6.969-3.795
			c0.149-0.13,0.299-0.28,0.447-0.423c0.032-0.024,0.057-0.05,0.088-0.075C385.576,265.441,385.831,265.174,386.08,264.887
			 M382.41,259.493c1.269-2.115,2.699-3.16,3.378-3.366c0.019,0.075,0.031,0.175,0.038,0.281c0.005,0.062,0.005,0.111,0.005,0.186
			c0,0.105-0.005,0.224-0.012,0.354c-0.019,0.218-0.056,0.46-0.118,0.734c-0.02,0.099-0.05,0.199-0.075,0.305
			c-0.087,0.336-0.198,0.697-0.36,1.095c-0.024,0.062-0.063,0.136-0.087,0.205c-0.193,0.448-0.417,0.927-0.722,1.431
			c-0.293,0.491-0.598,0.914-0.902,1.294c-0.044,0.055-0.087,0.111-0.124,0.161c-0.274,0.329-0.542,0.61-0.797,0.852
			c-0.068,0.063-0.137,0.131-0.199,0.187c-0.229,0.206-0.448,0.367-0.646,0.504c-0.069,0.05-0.138,0.087-0.199,0.125
			c-0.175,0.099-0.329,0.174-0.455,0.218c-0.024,0.012-0.049,0.006-0.074,0.019C380.917,263.425,381.109,261.684,382.41,259.493
			 M360.101,267.152c1.928-0.386,3.87-0.584,5.761-0.584c6.32,0,11.497,2.202,13.506,5.542c-0.366,0.317-0.722,0.691-1.101,1.089
			c-2.669,2.781-8.642,5.337-15.217,6.507c-6.813,1.219-14.049,0.958-17.676-0.597c-0.404-0.174-0.759-0.324-1.076-0.448
			C345.344,273.69,351.826,268.807,360.101,267.152 M351.247,295.875c-0.441-0.1-0.87-0.218-1.263-0.348
			c-1.654-0.536-2.706-1.207-3.018-1.891l-2.457-10.477c2.563,0.939,5.935,1.456,9.904,1.456c2.992,0,6.233-0.298,9.356-0.858
			c7.41-1.325,13.774-4.1,17.178-7.454l2.401,10.309c0.13,0.728-0.343,1.649-1.27,2.613c-0.317,0.33-0.685,0.653-1.083,0.977
			c-0.074,0.062-0.148,0.124-0.229,0.18c-0.349,0.268-0.722,0.529-1.119,0.79c-0.057,0.031-0.1,0.068-0.156,0.106
			c-0.144,0.087-0.305,0.174-0.455,0.268c-0.311,0.187-0.634,0.373-0.97,0.554c-0.242,0.124-0.492,0.249-0.74,0.374
			c-0.323,0.161-0.646,0.311-0.989,0.466c-0.225,0.106-0.454,0.206-0.685,0.305c-0.56,0.23-1.126,0.46-1.724,0.672
			c-0.03,0.013-0.056,0.025-0.086,0.037c-0.666,0.237-1.357,0.461-2.066,0.666c-0.149,0.044-0.298,0.081-0.447,0.125
			c-0.579,0.162-1.164,0.318-1.761,0.46c-0.174,0.044-0.349,0.082-0.523,0.125c-0.74,0.167-1.492,0.329-2.264,0.466
			c-1.294,0.231-2.606,0.393-3.907,0.523c-0.236,0.025-0.473,0.056-0.709,0.075c-1.133,0.1-2.24,0.137-3.323,0.156
			c-1.99,0.031-3.876-0.062-5.543-0.292c-0.049-0.006-0.087-0.013-0.136-0.019c-0.561-0.081-1.096-0.18-1.6-0.286
			C351.453,295.932,351.353,295.9,351.247,295.875 M351.808,299.87c0.081,0.012,0.167,0.025,0.248,0.037
			c0.461,0.075,0.922,0.143,1.375,0.199c0.074,0.012,0.149,0.018,0.224,0.025c1.736,0.198,3.342,0.249,4.474,0.249l0,0
			c0.168,0,0.349-0.025,0.517-0.025c1.182-0.013,2.401-0.068,3.633-0.174c0.25-0.025,0.491-0.038,0.741-0.063
			c1.474-0.136,2.961-0.336,4.429-0.591c0.037-0.006,0.068-0.019,0.106-0.019c0.672-0.124,1.338-0.254,1.996-0.404
			c0.293-0.062,0.566-0.137,0.859-0.206c0.392-0.093,0.784-0.187,1.163-0.286c0.361-0.094,0.709-0.206,1.064-0.305
			c0.285-0.087,0.578-0.168,0.864-0.255c0.392-0.124,0.777-0.255,1.157-0.386c0.23-0.081,0.46-0.155,0.69-0.242
			c0.398-0.144,0.784-0.293,1.164-0.448c0.205-0.082,0.403-0.162,0.603-0.243c0.38-0.156,0.741-0.324,1.108-0.485
			c0.192-0.093,0.385-0.18,0.571-0.274c0.343-0.162,0.673-0.33,0.995-0.503c0.206-0.106,0.405-0.218,0.598-0.324
			c0.287-0.162,0.561-0.324,0.828-0.485c0.093-0.056,0.198-0.112,0.285-0.174c0.118-0.069,0.218-0.15,0.33-0.225
			c0.155-0.1,0.318-0.193,0.467-0.292l5.469,23.642c-0.1,0.086-0.192,0.173-0.299,0.254c-0.192,0.162-0.392,0.312-0.604,0.467
			c-0.236,0.174-0.485,0.343-0.74,0.504c-0.225,0.143-0.454,0.292-0.69,0.429c-0.286,0.168-0.585,0.336-0.89,0.498
			c-0.249,0.137-0.504,0.268-0.766,0.398c-0.329,0.162-0.672,0.317-1.021,0.473c-0.273,0.119-0.541,0.243-0.827,0.361
			c-0.367,0.156-0.752,0.299-1.139,0.442c-0.292,0.106-0.578,0.218-0.87,0.324c-0.411,0.143-0.841,0.273-1.27,0.411
			c-0.293,0.094-0.579,0.186-0.883,0.273c-0.479,0.144-0.971,0.262-1.47,0.387c-0.261,0.067-0.516,0.143-0.783,0.205
			c-0.766,0.181-1.543,0.342-2.333,0.479c-0.759,0.137-1.53,0.249-2.295,0.348c-0.269,0.038-0.529,0.057-0.797,0.087
			c-0.504,0.056-1.015,0.119-1.519,0.156c-0.268,0.025-0.528,0.037-0.796,0.056c-0.504,0.037-1.008,0.067-1.506,0.087
			c-0.23,0.006-0.448,0.012-0.678,0.012c-0.528,0.012-1.058,0.02-1.568,0.012c-0.187-0.005-0.366-0.012-0.547-0.012
			c-0.541-0.012-1.076-0.037-1.593-0.068c-0.156-0.012-0.305-0.024-0.454-0.037c-0.523-0.044-1.026-0.093-1.512-0.155
			c-0.143-0.019-0.293-0.039-0.437-0.056c-0.453-0.069-0.883-0.144-1.299-0.23c-0.174-0.031-0.343-0.068-0.504-0.106
			c-0.175-0.038-0.324-0.086-0.486-0.137L351.808,299.87z M352.273,327.331l4.138,28.774l-3.342,0.678l-1.772-15.466l0,0
			l-1.238-10.788l-0.305-2.687L352.273,327.331z M348.063,346.404l1.475,12.866c0.062,0.529,0.341,1.008,0.771,1.319
			c0.329,0.236,0.715,0.361,1.114,0.361c0.124,0,0.255-0.013,0.379-0.038l6.371-1.3l0.914,0.641l0.312,0.18
			c0.279,0.132,0.628,0.218,0.938,0.337l0.673,9.519l-1.046,4.391l-3.758-1.349l-0.006-0.008c-0.336-0.167-0.69-0.266-1.058-0.328
			c-1.618-0.909-3.129-2.097-4.38-3.446c-2.053-2.221-3.576-5.494-4.535-9.729c-0.217-0.971-0.373-1.974-0.454-2.981
			c-0.286-3.621,0.38-7.011,1.91-9.804C347.801,346.834,347.938,346.623,348.063,346.404 M348.685,376.453
			c-0.051,0.063-0.094,0.119-0.138,0.182c-0.292,0.397-0.572,0.813-0.826,1.263c-0.355,0.622-0.629,1.25-0.865,1.871
			c-0.063,0.163-0.106,0.318-0.162,0.474c-0.168,0.498-0.292,0.983-0.38,1.463c-0.018,0.086-0.056,0.18-0.068,0.268
			c-1.66-1.195-3.204-2.557-4.572-4.037c-3.534-3.834-6.066-9.008-7.509-15.381c-0.35-1.561-0.592-3.166-0.716-4.746
			c-0.474-6.028,0.702-11.809,3.396-16.716c0.678-1.231,1.462-2.445,2.396-3.701c1.854-2.482,4.1-4.84,6.956-7.298l1.237,10.807
			c-0.516,0.591-0.945,1.119-1.325,1.63c-0.696,0.92-1.264,1.804-1.748,2.686c-1.885,3.44-2.706,7.561-2.364,11.928
			c0.093,1.188,0.273,2.37,0.535,3.521c1.107,4.891,2.943,8.741,5.449,11.459c0.784,0.854,1.655,1.649,2.582,2.371
			C349.892,375.023,349.263,375.694,348.685,376.453 M355.795,380.877c-0.28,0.479-0.517,0.953-0.728,1.431
			c-0.068,0.162-0.124,0.318-0.187,0.48c-0.124,0.311-0.243,0.621-0.336,0.932c-0.057,0.181-0.094,0.361-0.144,0.542
			c-0.068,0.279-0.13,0.56-0.175,0.828c-0.03,0.187-0.049,0.36-0.067,0.54c-0.013,0.119-0.038,0.244-0.043,0.354l-3.721-1.337
			c-0.044-0.012-0.144-0.044-0.188-0.056c-0.024-0.014-0.036-0.051-0.056-0.075c-0.037-0.056-0.074-0.117-0.105-0.205
			c0-0.006,0-0.02-0.007-0.025c-0.03-0.08-0.049-0.187-0.068-0.299c-0.006-0.055-0.019-0.123-0.024-0.187
			c-0.007-0.074-0.013-0.148-0.019-0.236c0-0.13,0-0.272,0.006-0.423c0.006-0.043,0.006-0.088,0.006-0.13
			c0.013-0.188,0.044-0.386,0.081-0.597c0.006-0.026,0.006-0.058,0.013-0.081c0.044-0.219,0.1-0.442,0.174-0.679
			c0.013-0.038,0.019-0.075,0.031-0.113c0.075-0.224,0.162-0.466,0.262-0.709c0.024-0.049,0.037-0.099,0.063-0.162
			c0.13-0.292,0.279-0.596,0.454-0.914c1.163-2.052,2.675-3.017,3.459-3.035h0.037c0.074,0.037,0.149,0.074,0.23,0.101l3.31,1.193
			c-0.373,0.349-0.728,0.74-1.07,1.157c-0.081,0.093-0.155,0.187-0.23,0.292C356.417,379.919,356.094,380.374,355.795,380.877
			 M356.908,424.415c-0.03,0.104-0.08,0.192-0.117,0.291c-0.088,0.249-0.181,0.499-0.312,0.734c-0.081,0.149-0.175,0.273-0.268,0.41
			c-0.112,0.169-0.23,0.337-0.361,0.492c-0.111,0.13-0.224,0.255-0.336,0.36c-1.449,1.468-3.782,2.427-6.426,2.427
			c-4.398,0-7.982-2.632-7.982-5.88c0-1.567,0.846-2.98,2.196-4.031h0.006c1.145-0.89,2.576-1.48,4.138-1.722l0.03-0.013
			c0.523-0.081,1.064-0.12,1.612-0.12c4.398,0,7.981,2.646,7.981,5.894C357.07,423.654,357.015,424.04,356.908,424.415
			 M365.587,417.932c-0.037,0.03-0.117,0.101-0.155,0.131l-4.653,4.063c-0.006-0.038-0.019-0.069-0.024-0.112
			c-0.082-0.517-0.205-1.021-0.38-1.512c-0.013-0.025-0.019-0.057-0.03-0.087c-0.182-0.485-0.418-0.958-0.691-1.412
			c-0.037-0.068-0.075-0.138-0.118-0.206c-0.274-0.429-0.585-0.84-0.934-1.226c-0.063-0.073-0.124-0.144-0.187-0.211
			c-0.36-0.387-0.746-0.747-1.169-1.082c-0.063-0.051-0.132-0.1-0.199-0.143c-0.448-0.343-0.922-0.66-1.431-0.94
			c-0.025-0.012-0.057-0.025-0.081-0.039c-0.523-0.279-1.07-0.521-1.643-0.738c-0.044-0.013-0.081-0.032-0.118-0.045
			c-0.566-0.204-1.163-0.36-1.773-0.49c-0.081-0.018-0.168-0.037-0.249-0.051c-0.604-0.117-1.219-0.186-1.854-0.224
			c-0.043-0.007-0.086-0.012-0.086-0.012l4.087-3.62c0.019-0.02,0.044-0.039,0.063-0.063c0.348-0.293,0.739-0.541,1.145-0.771
			c0.143-0.082,0.299-0.149,0.454-0.224c0.292-0.144,0.585-0.281,0.902-0.385c0.149-0.058,0.299-0.101,0.447-0.151
			c0.349-0.105,0.71-0.191,1.07-0.261c0.131-0.031,0.268-0.056,0.398-0.073c0.504-0.076,1.021-0.125,1.543-0.125
			c4.397,0,7.976,2.644,7.976,5.891C367.89,415.355,367.074,416.818,365.587,417.932 M369.799,408.563
			c-0.019-0.024-0.036-0.044-0.056-0.068c-0.242-0.3-0.498-0.592-0.777-0.865c-0.044-0.05-0.1-0.093-0.149-0.138
			c-0.236-0.222-0.485-0.441-0.753-0.646c-0.1-0.081-0.211-0.162-0.317-0.243c-0.224-0.169-0.46-0.323-0.696-0.479
			c-0.119-0.076-0.237-0.143-0.355-0.217c-0.285-0.168-0.578-0.318-0.877-0.461c-0.081-0.036-0.155-0.08-0.236-0.117
			c-0.386-0.175-0.784-0.331-1.188-0.474c-0.111-0.037-0.224-0.062-0.335-0.1c-0.312-0.093-0.622-0.181-0.94-0.255
			c-0.143-0.031-0.292-0.062-0.441-0.093c-0.311-0.063-0.622-0.112-0.939-0.149c-0.143-0.02-0.28-0.038-0.423-0.057
			c-0.454-0.043-0.921-0.073-1.388-0.073c-0.709,0-1.399,0.067-2.084,0.167c-0.199,0.03-0.393,0.068-0.585,0.099
			c-0.168,0.031-0.342,0.051-0.504,0.081l3.266-13.662c0.014,0,0.025-0.012,0.038-0.019c0.393-0.155,0.778-0.367,1.157-0.609
			c0.094-0.057,0.181-0.113,0.268-0.175c0.393-0.269,0.784-0.565,1.163-0.914c0.019-0.013,0.037-0.037,0.056-0.057
			c0.354-0.336,0.691-0.709,1.021-1.106c0.081-0.106,0.168-0.206,0.256-0.317c0.335-0.436,0.659-0.891,0.951-1.393
			c0.896-1.524,1.438-3.075,1.624-4.493c0.312-2.357-0.354-4.367-1.979-5.319c-0.105-0.063-0.224-0.094-0.336-0.143
			c-0.1-0.063-0.187-0.144-0.305-0.188l-0.354-0.129l0.547-2.31c0.318,0.149,0.679,0.274,1.033,0.404
			c0.124,0.05,0.23,0.1,0.36,0.143c0.592,0.2,1.226,0.381,1.916,0.53c0,0,0.031,0,0.044,0.005l0,0
			c0.566,0.114,1.176,0.211,1.866,0.325c0.791,0.105,1.624,0.173,2.482,0.216c0.23,0.013,0.473,0.013,0.704,0.027
			c0.435,0.011,0.857,0.036,1.306,0.036l0,0c0.155,0,0.323-0.019,0.479-0.025c1.095-0.011,2.209-0.063,3.354-0.155
			c0.075-0.007,0.149-0.007,0.225-0.013c1.02-0.093,2.04-0.216,3.055-0.374L369.799,408.563z M372.107,371.496
			c-0.797-0.038-1.574-0.094-2.29-0.187h-0.019c-0.541-0.068-1.057-0.163-1.549-0.268l-0.037-0.007
			c-0.498-0.106-0.927-0.224-1.307-0.343c-0.379-0.117-0.722-0.248-1.032-0.392c-0.088-0.042-0.149-0.074-0.23-0.119
			c-0.193-0.098-0.38-0.198-0.535-0.297c-0.081-0.05-0.149-0.106-0.211-0.15c-0.057-0.036-0.088-0.08-0.137-0.124l-0.555-7.814
			c1.798,0.294,3.813,0.448,6.004,0.448l0,0l0.125-0.006h0.012l0.554,0.006c2.563,0,5.469-0.286,8.629-0.853
			c0.865-0.156,1.711-0.334,2.544-0.529c0.256-0.062,0.505-0.13,0.76-0.191c0.604-0.148,1.194-0.312,1.779-0.479
			c0.248-0.07,0.485-0.138,0.729-0.219c0.753-0.231,1.486-0.479,2.195-0.74c0.031-0.012,0.068-0.026,0.105-0.037
			c0.766-0.286,1.493-0.586,2.203-0.901c0.155-0.07,0.305-0.145,0.46-0.212c0.56-0.256,1.102-0.529,1.624-0.804
			c0.143-0.074,0.286-0.148,0.429-0.223c0.66-0.367,1.294-0.741,1.867-1.134l0.908,8.438l-0.025,0.03
			c-0.093,0.143-0.229,0.292-0.349,0.449c-0.279,0.341-0.622,0.695-1.069,1.069c-0.038,0.03-0.063,0.056-0.1,0.088
			c-0.268,0.217-0.579,0.435-0.902,0.651c-0.1,0.068-0.187,0.138-0.292,0.199c-0.305,0.2-0.647,0.393-0.996,0.592
			c-0.161,0.093-0.329,0.18-0.504,0.273c-0.329,0.174-0.678,0.342-1.045,0.517c-0.242,0.11-0.491,0.224-0.747,0.337
			c-0.349,0.147-0.696,0.291-1.07,0.434c-0.322,0.125-0.652,0.243-0.988,0.355c-0.36,0.123-0.722,0.248-1.101,0.367
			c-0.393,0.118-0.804,0.229-1.214,0.342c-0.367,0.106-0.74,0.205-1.126,0.299c-0.753,0.181-1.524,0.349-2.333,0.497
			C378.167,371.427,374.895,371.626,372.107,371.496 M384.419,410.789c-0.019,0.025-0.05,0.038-0.074,0.057l-2.464-26.87
			l3.322-10.084c0.044-0.007,0.075-0.025,0.112-0.033c0.857-0.222,1.691-0.471,2.495-0.733c0.211-0.067,0.404-0.143,0.609-0.211
			c0.535-0.187,1.051-0.392,1.562-0.592c0.441-0.18,0.865-0.36,1.275-0.554c0.293-0.137,0.585-0.272,0.864-0.41
			c0.523-0.261,1.015-0.527,1.487-0.803c0.199-0.118,0.398-0.235,0.585-0.354c0.218-0.137,0.467-0.268,0.672-0.41l0.934,38.286
			c-0.094-0.02-0.188-0.024-0.28-0.044c-0.175-0.03-0.354-0.056-0.536-0.081c-0.678-0.094-1.362-0.161-2.059-0.161
			c-0.833,0-1.648,0.073-2.438,0.212c-0.038,0.005-0.068,0.012-0.1,0.024c-0.753,0.137-1.48,0.329-2.171,0.578
			c-0.051,0.02-0.094,0.038-0.144,0.057c-0.666,0.249-1.307,0.546-1.898,0.889c-0.055,0.032-0.104,0.063-0.161,0.101
			C385.452,409.98,384.911,410.366,384.419,410.789 M394.361,420.924c-0.063,0.068-0.124,0.137-0.187,0.206
			c-0.349,0.391-0.659,0.802-0.933,1.231c-0.045,0.067-0.082,0.136-0.118,0.205c-0.274,0.455-0.512,0.921-0.692,1.411
			c-0.012,0.032-0.019,0.063-0.03,0.095c-0.175,0.483-0.299,0.989-0.38,1.506c-0.006,0.043-0.024,0.074-0.031,0.11l-4.535-3.963
			c-0.044-0.043-0.137-0.125-0.187-0.16c-1.487-1.113-2.308-2.582-2.308-4.12c0-3.24,3.577-5.879,7.976-5.879
			c0.653,0,1.288,0.075,1.916,0.193c0.205,0.038,0.398,0.1,0.604,0.148c0.416,0.101,0.815,0.225,1.2,0.381
			c0.854,0.337,1.649,0.771,2.303,1.325l4.05,3.539c0,0-0.087,0.013-0.137,0.013c-0.629,0.038-1.245,0.112-1.848,0.226
			c-0.081,0.012-0.168,0.035-0.256,0.049c-0.609,0.125-1.2,0.285-1.767,0.491c-0.043,0.02-0.087,0.038-0.13,0.049
			c-0.572,0.212-1.114,0.454-1.637,0.735c-0.024,0.012-0.056,0.024-0.081,0.044c-0.51,0.279-0.982,0.596-1.437,0.938
			c-0.063,0.052-0.131,0.095-0.199,0.145C395.107,420.178,394.722,420.538,394.361,420.924 M403.687,432.694
			c-2.619,0-4.927-0.945-6.383-2.389c-0.131-0.125-0.261-0.267-0.392-0.416c-0.118-0.143-0.219-0.287-0.323-0.437
			c-0.101-0.149-0.212-0.285-0.306-0.447c-0.131-0.237-0.225-0.485-0.311-0.74c-0.038-0.101-0.087-0.182-0.119-0.287
			c-0.099-0.373-0.161-0.771-0.161-1.17c0-3.247,3.577-5.885,7.981-5.885c0.548,0,1.09,0.037,1.605,0.118
			c1.562,0.237,2.993,0.822,4.132,1.704l0.012,0.012c1.369,1.06,2.222,2.477,2.222,4.051
			C411.662,430.057,408.085,432.694,403.687,432.694 M364.15,310.434c1.437,0,2.606-1.17,2.606-2.606
			c0-1.438-1.17-2.607-2.606-2.607c-1.443,0-2.606,1.17-2.606,2.607C361.544,309.264,362.707,310.434,364.15,310.434
			 M419.646,400.754c0.527-0.441,0.795-1.138,0.795-2.083c0-1.015-0.299-1.768-0.901-2.272c-0.604-0.497-1.53-0.746-2.781-0.746
			h-4.075v10.533h1.637v-4.529h1.735l2.868,4.529h1.761l-3.012-4.653C418.456,401.457,419.115,401.189,419.646,400.754
			 M416.029,400.332h-1.71v-3.354h2.171c0.273,0,0.548,0.018,0.834,0.061c0.279,0.045,0.528,0.114,0.746,0.231
			c0.219,0.111,0.393,0.279,0.528,0.484c0.138,0.212,0.206,0.486,0.206,0.841c0,0.422-0.081,0.747-0.23,0.977
			c-0.155,0.235-0.354,0.405-0.615,0.517c-0.255,0.111-0.555,0.181-0.878,0.206C416.752,400.319,416.396,400.332,416.029,400.332
			 M376.245,307.752c1.443,0,2.605-1.164,2.605-2.607c0-1.437-1.162-2.607-2.605-2.607c-1.438,0-2.607,1.17-2.607,2.607
			C373.638,306.589,374.808,307.752,376.245,307.752 M354.01,350.997c0.521,0.011,0.957-0.404,0.97-0.928
			c0.013-0.522-0.403-0.959-0.926-0.97c-0.523-0.007-0.959,0.411-0.965,0.926C353.069,350.554,353.487,350.99,354.01,350.997
			 M373.028,318.919l0.23,0.05c1.02-4.53,7.104-7.584,7.104-7.584s-5.127-0.361-7.97,3.589c0,0-3.478-2.37-8.847-0.318
			C363.547,314.652,370.341,315.131,373.028,318.919 M351.757,333.645c0.523,0.013,0.959-0.404,0.965-0.926
			c0.013-0.523-0.404-0.952-0.927-0.964c-0.523-0.013-0.958,0.404-0.971,0.927C350.817,333.205,351.234,333.639,351.757,333.645"/>
		<path fill="#0095DA" d="M628.021,385.779c1.73,0,3.323,0.168,4.78,0.505c1.454,0.335,2.712,0.89,3.768,1.654
			c1.059,0.765,1.886,1.793,2.477,3.074c0.593,1.281,0.891,2.86,0.891,4.752s-0.355,3.583-1.076,5.07
			c-0.723,1.486-1.698,2.749-2.932,3.771c-1.229,1.026-2.649,1.811-4.247,2.351c-1.605,0.549-3.299,0.822-5.09,0.822h-9.32
			l-2.593,12.3h-7.496l7.109-34.305h13.729V385.779z M626.192,401.918c1.928,0,3.435-0.485,4.542-1.461
			c1.106-0.972,1.655-2.49,1.655-4.537c0-0.864-0.157-1.573-0.461-2.14c-0.305-0.553-0.716-0.989-1.227-1.294
			c-0.516-0.306-1.082-0.523-1.704-0.646c-0.621-0.125-1.274-0.194-1.939-0.194h-6.439l-2.11,10.278h7.684V401.918z"/>
		<polygon fill="#0095DA" points="654.002,385.779 646.754,420.078 639.214,420.078 646.418,385.779 		"/>
		<path fill="#0095DA" d="M674.275,385.779c1.729,0,3.324,0.168,4.78,0.505c1.455,0.335,2.713,0.89,3.776,1.654
			c1.058,0.765,1.877,1.793,2.476,3.074c0.592,1.281,0.889,2.86,0.889,4.752s-0.36,3.583-1.082,5.07
			c-0.716,1.486-1.697,2.749-2.93,3.771c-1.238,1.026-2.651,1.811-4.249,2.351c-1.606,0.549-3.298,0.822-5.096,0.822h-9.319
			l-2.595,12.3h-7.497l7.111-34.305h13.735V385.779z M672.453,401.918c1.923,0,3.441-0.485,4.542-1.461
			c1.103-0.972,1.655-2.49,1.655-4.537c0-0.864-0.154-1.573-0.454-2.14c-0.305-0.553-0.709-0.989-1.226-1.294
			c-0.511-0.306-1.076-0.523-1.705-0.646c-0.622-0.125-1.274-0.194-1.946-0.194h-6.439l-2.115,10.278h7.688V401.918z"/>
		<polygon fill="#0095DA" points="718.815,385.779 717.515,392.12 698.876,392.12 697.339,399.467 714.585,399.467 713.335,405.333 
			696.089,405.333 694.311,413.739 713.242,413.739 711.897,420.078 685.475,420.078 692.63,385.779 		"/>
		<path fill="#0095DA" d="M725.484,411.741c0.354,0.821,0.864,1.463,1.544,1.948c0.67,0.479,1.467,0.825,2.4,1.031
			s1.94,0.311,3.03,0.311c0.771,0,1.536-0.098,2.309-0.291c0.765-0.187,1.461-0.474,2.083-0.858c0.622-0.386,1.14-0.883,1.537-1.494
			c0.404-0.609,0.604-1.344,0.604-2.201c0-0.84-0.255-1.519-0.766-2.048c-0.516-0.529-1.175-0.983-1.997-1.369
			c-0.814-0.385-1.742-0.723-2.786-1.007c-1.04-0.292-2.085-0.598-3.149-0.915c-1.088-0.316-2.146-0.709-3.165-1.157
			c-1.027-0.448-1.949-1.026-2.764-1.729c-0.813-0.71-1.473-1.567-1.966-2.595c-0.497-1.026-0.745-2.271-0.745-3.744
			c0-1.923,0.396-3.553,1.2-4.901c0.796-1.346,1.842-2.44,3.122-3.293c1.282-0.845,2.731-1.474,4.35-1.871
			c1.61-0.405,3.26-0.604,4.927-0.604c1.76,0,3.415,0.199,4.978,0.604c1.548,0.397,2.911,1.05,4.08,1.947
			c1.17,0.896,2.104,2.033,2.788,3.433c0.685,1.395,1.032,3.086,1.032,5.071h-7.16c0.031-0.965-0.106-1.773-0.41-2.427
			c-0.306-0.66-0.735-1.194-1.295-1.605c-0.565-0.417-1.231-0.715-1.997-0.89c-0.764-0.18-1.587-0.268-2.444-0.268
			c-0.71,0-1.419,0.069-2.141,0.219c-0.715,0.143-1.369,0.386-1.941,0.722c-0.578,0.334-1.044,0.777-1.394,1.319
			c-0.354,0.547-0.536,1.219-0.536,2.015c0,0.834,0.313,1.53,0.941,2.09c0.621,0.561,1.381,1.026,2.258,1.395
			c0.884,0.366,1.786,0.653,2.711,0.865c0.935,0.204,1.681,0.378,2.26,0.503c1.35,0.354,2.583,0.76,3.702,1.226
			c1.119,0.467,2.091,1.064,2.911,1.799c0.814,0.739,1.444,1.629,1.898,2.688c0.447,1.058,0.671,2.357,0.671,3.894
			c0,2.048-0.423,3.796-1.269,5.232c-0.854,1.443-1.941,2.613-3.266,3.502c-1.326,0.904-2.832,1.551-4.493,1.947
			c-1.667,0.405-3.315,0.605-4.951,0.605c-4.804,0-8.38-0.983-10.738-2.93c-2.357-1.955-3.528-5.029-3.528-9.228h7.155
			C724.993,409.912,725.136,410.926,725.484,411.741"/>
		<path fill="#0095DA" d="M732.092,288.933c-10.221-30.721-62.15-28.37-82.003,0c-12.325,18.825-14.012,40.022-9.936,51.941
			c13.244,35.026,65.996,26.13,82.427,0.181C733.199,324.127,736.752,306.383,732.092,288.933 M698.36,329.907
			c-6.738,14.956-30.23,16.635-31.257-0.71c-0.703-14.42,4.02-25.127,5.966-28.81c7.051-15.97,30.628-15.946,31.075,0.41
			C704.32,310.731,702.802,319.268,698.36,329.907"/>
		<path fill="#0095DA" d="M557.658,288.354h19.995l-9.425,51.269h-20.064L557.658,288.354z M558.535,283.757h19.934l2.65-14.191
			l-19.958,0.006L558.535,283.757z"/>
		<path fill="#0095DA" d="M582.656,288.354h20.131l-1.423,7.875c23.392-18.913,36.791-1.741,34.938,7.479l-6.687,35.91
			l-20.674-0.007l5.326-27.816c2.194-13.107-13.607-11.241-15.735-0.546l-5.27,28.362h-20.101L582.656,288.354z"/>
		<polygon fill="#0095DA" points="502.021,269.559 557.042,269.572 554.063,285.797 519.808,285.785 517.604,297.711 
			543.262,297.711 540.214,314.266 514.538,314.229 509.859,339.624 489.074,339.624 		"/>
		<polygon fill="#0095DA" points="747.334,269.559 767.385,269.559 754.495,339.624 734.425,339.624 		"/>
		<polygon fill="#0095DA" points="827.153,288.323 848.673,288.323 852.86,300.915 863.355,288.366 884.608,288.335 862.54,312.667 
			874.672,339.619 852.917,339.619 848.512,324.232 837.53,339.619 814.649,339.575 838.826,312.667 		"/>
		<path fill="#0095DA" d="M797.428,287.109c-16.355,0-31.379,12.256-33.433,27.294c-2.054,15.036,9.618,27.292,25.98,27.292
			c12.424,0,24.082-7.079,29.861-17.071h-19.28c-4.255,6.327-19.403,6.122-17.543-6.251h39.529c0.381-1.301,0.672-2.626,0.854-3.977
			C825.455,299.372,813.79,287.109,797.428,287.109 M804.239,307.789h-19.397c1.264-6.122,5.426-8.398,11.978-8.486
			C799.911,299.391,804.65,300.846,804.239,307.789"/>
		<rect x="723.444" y="359.543" fill="#0095DA" width="153.15" height="6.547"/>
		<rect x="487.097" y="359.543" fill="#0095DA" width="143.37" height="6.547"/>
	</g>
</g>
</svg>
